<mxfile host="app.diagrams.net" modified="2023-12-19T20:15:28.863Z" agent="Mozilla/5.0 (Windows NT 10.0; Win64; x64) AppleWebKit/537.36 (KHTML, like Gecko) Chrome/120.0.0.0 Safari/537.36" etag="_KoiJ7WaOu4cDJsiSQaJ" version="22.1.11" type="google">
  <diagram id="OTN4dwms1DjFfdeTOGzQ" name="Entidad_Relacion">
    <mxGraphModel grid="0" page="1" gridSize="10" guides="1" tooltips="1" connect="1" arrows="1" fold="1" pageScale="1" pageWidth="3000" pageHeight="2500" math="0" shadow="0">
      <root>
        <mxCell id="0" />
        <mxCell id="1" parent="0" />
        <mxCell id="JzuQI5ceS0t7QEchVxhn-73" style="edgeStyle=orthogonalEdgeStyle;rounded=0;orthogonalLoop=1;jettySize=auto;html=1;entryX=0.5;entryY=0;entryDx=0;entryDy=0;endArrow=none;endFill=0;" edge="1" parent="1" source="jgS1Tv3nC2SuW6WR_Pd8-288" target="JzuQI5ceS0t7QEchVxhn-72">
          <mxGeometry relative="1" as="geometry">
            <Array as="points">
              <mxPoint x="-4645.5" y="-1358" />
              <mxPoint x="-4797.5" y="-1358" />
            </Array>
          </mxGeometry>
        </mxCell>
        <mxCell id="JzuQI5ceS0t7QEchVxhn-278" style="edgeStyle=orthogonalEdgeStyle;rounded=0;orthogonalLoop=1;jettySize=auto;html=1;endArrow=none;endFill=0;" edge="1" parent="1" source="jgS1Tv3nC2SuW6WR_Pd8-288" target="JzuQI5ceS0t7QEchVxhn-277">
          <mxGeometry relative="1" as="geometry">
            <Array as="points">
              <mxPoint x="-4594.5" y="-1294" />
              <mxPoint x="-4267.5" y="-1294" />
              <mxPoint x="-4267.5" y="-1115" />
            </Array>
          </mxGeometry>
        </mxCell>
        <mxCell id="NXLZ_SZugGsvlr5fQkXZ-6" style="edgeStyle=orthogonalEdgeStyle;rounded=0;orthogonalLoop=1;jettySize=auto;html=1;entryX=0;entryY=0.5;entryDx=0;entryDy=0;endArrow=none;endFill=0;" edge="1" parent="1" source="jgS1Tv3nC2SuW6WR_Pd8-288" target="JzuQI5ceS0t7QEchVxhn-273">
          <mxGeometry relative="1" as="geometry">
            <Array as="points">
              <mxPoint x="-4587.5" y="-1306" />
              <mxPoint x="-4259.5" y="-1306" />
              <mxPoint x="-4259.5" y="-1201" />
            </Array>
          </mxGeometry>
        </mxCell>
        <mxCell id="NXLZ_SZugGsvlr5fQkXZ-7" style="edgeStyle=orthogonalEdgeStyle;rounded=0;orthogonalLoop=1;jettySize=auto;html=1;entryX=0;entryY=0.5;entryDx=0;entryDy=0;endArrow=none;endFill=0;" edge="1" parent="1" source="jgS1Tv3nC2SuW6WR_Pd8-288" target="JzuQI5ceS0t7QEchVxhn-275">
          <mxGeometry relative="1" as="geometry">
            <Array as="points">
              <mxPoint x="-4581.5" y="-1315" />
              <mxPoint x="-4250.5" y="-1315" />
              <mxPoint x="-4250.5" y="-1287" />
              <mxPoint x="-4164.5" y="-1287" />
            </Array>
          </mxGeometry>
        </mxCell>
        <mxCell id="NXLZ_SZugGsvlr5fQkXZ-8" style="edgeStyle=orthogonalEdgeStyle;rounded=0;orthogonalLoop=1;jettySize=auto;html=1;endArrow=none;endFill=0;" edge="1" parent="1" source="jgS1Tv3nC2SuW6WR_Pd8-288" target="JzuQI5ceS0t7QEchVxhn-276">
          <mxGeometry relative="1" as="geometry">
            <Array as="points">
              <mxPoint x="-4577.5" y="-1357" />
            </Array>
          </mxGeometry>
        </mxCell>
        <mxCell id="NXLZ_SZugGsvlr5fQkXZ-73" style="edgeStyle=orthogonalEdgeStyle;rounded=0;orthogonalLoop=1;jettySize=auto;html=1;entryX=0;entryY=0.5;entryDx=0;entryDy=0;endArrow=none;endFill=0;" edge="1" parent="1" source="jgS1Tv3nC2SuW6WR_Pd8-288" target="NXLZ_SZugGsvlr5fQkXZ-71">
          <mxGeometry relative="1" as="geometry">
            <Array as="points">
              <mxPoint x="-4562.5" y="-1400" />
              <mxPoint x="-4562.5" y="-1369" />
              <mxPoint x="-4310.5" y="-1369" />
              <mxPoint x="-4310.5" y="-1419" />
              <mxPoint x="-4293.5" y="-1419" />
            </Array>
          </mxGeometry>
        </mxCell>
        <mxCell id="NXLZ_SZugGsvlr5fQkXZ-80" style="edgeStyle=orthogonalEdgeStyle;rounded=0;orthogonalLoop=1;jettySize=auto;html=1;entryX=0;entryY=0.5;entryDx=0;entryDy=0;endArrow=none;endFill=0;" edge="1" parent="1" source="jgS1Tv3nC2SuW6WR_Pd8-288" target="NXLZ_SZugGsvlr5fQkXZ-41">
          <mxGeometry relative="1" as="geometry">
            <Array as="points">
              <mxPoint x="-4490.5" y="-1415" />
              <mxPoint x="-4490.5" y="-1460" />
              <mxPoint x="-4344.5" y="-1460" />
              <mxPoint x="-4344.5" y="-1638" />
            </Array>
          </mxGeometry>
        </mxCell>
        <mxCell id="NXLZ_SZugGsvlr5fQkXZ-83" style="edgeStyle=orthogonalEdgeStyle;rounded=0;orthogonalLoop=1;jettySize=auto;html=1;entryX=0;entryY=0.75;entryDx=0;entryDy=0;endArrow=none;endFill=0;" edge="1" parent="1" source="jgS1Tv3nC2SuW6WR_Pd8-288" target="NXLZ_SZugGsvlr5fQkXZ-82">
          <mxGeometry relative="1" as="geometry">
            <Array as="points">
              <mxPoint x="-4519.5" y="-1404" />
              <mxPoint x="-4519.5" y="-1394" />
            </Array>
          </mxGeometry>
        </mxCell>
        <mxCell id="NXLZ_SZugGsvlr5fQkXZ-105" style="edgeStyle=orthogonalEdgeStyle;rounded=0;orthogonalLoop=1;jettySize=auto;html=1;entryX=0;entryY=0.5;entryDx=0;entryDy=0;endArrow=none;endFill=0;" edge="1" parent="1" source="jgS1Tv3nC2SuW6WR_Pd8-288" target="NXLZ_SZugGsvlr5fQkXZ-43">
          <mxGeometry relative="1" as="geometry">
            <Array as="points">
              <mxPoint x="-4494.5" y="-1418" />
              <mxPoint x="-4494.5" y="-1467" />
              <mxPoint x="-4350.5" y="-1467" />
              <mxPoint x="-4350.5" y="-1725" />
            </Array>
          </mxGeometry>
        </mxCell>
        <mxCell id="NXLZ_SZugGsvlr5fQkXZ-108" style="edgeStyle=orthogonalEdgeStyle;rounded=0;orthogonalLoop=1;jettySize=auto;html=1;entryX=1;entryY=0.5;entryDx=0;entryDy=0;endArrow=none;endFill=0;" edge="1" parent="1" source="jgS1Tv3nC2SuW6WR_Pd8-288" target="NXLZ_SZugGsvlr5fQkXZ-107">
          <mxGeometry relative="1" as="geometry">
            <Array as="points">
              <mxPoint x="-4917.5" y="-1418" />
              <mxPoint x="-4917.5" y="-1335" />
            </Array>
          </mxGeometry>
        </mxCell>
        <mxCell id="NXLZ_SZugGsvlr5fQkXZ-130" style="edgeStyle=orthogonalEdgeStyle;rounded=0;orthogonalLoop=1;jettySize=auto;html=1;entryX=0;entryY=0.75;entryDx=0;entryDy=0;endArrow=none;endFill=0;" edge="1" parent="1" source="NXLZ_SZugGsvlr5fQkXZ-132" target="NXLZ_SZugGsvlr5fQkXZ-129">
          <mxGeometry relative="1" as="geometry">
            <Array as="points" />
          </mxGeometry>
        </mxCell>
        <mxCell id="NXLZ_SZugGsvlr5fQkXZ-141" style="edgeStyle=orthogonalEdgeStyle;rounded=0;orthogonalLoop=1;jettySize=auto;html=1;entryX=0;entryY=0.5;entryDx=0;entryDy=0;endArrow=none;endFill=0;" edge="1" parent="1" source="jgS1Tv3nC2SuW6WR_Pd8-288" target="NXLZ_SZugGsvlr5fQkXZ-121">
          <mxGeometry relative="1" as="geometry">
            <Array as="points">
              <mxPoint x="-4582.5" y="-1454" />
              <mxPoint x="-4524.5" y="-1454" />
              <mxPoint x="-4524.5" y="-1596" />
            </Array>
          </mxGeometry>
        </mxCell>
        <mxCell id="NXLZ_SZugGsvlr5fQkXZ-160" style="edgeStyle=orthogonalEdgeStyle;rounded=0;orthogonalLoop=1;jettySize=auto;html=1;endArrow=none;endFill=0;" edge="1" parent="1" source="jgS1Tv3nC2SuW6WR_Pd8-288" target="NXLZ_SZugGsvlr5fQkXZ-140">
          <mxGeometry relative="1" as="geometry">
            <Array as="points">
              <mxPoint x="-4625.5" y="-1493" />
              <mxPoint x="-4602.5" y="-1493" />
              <mxPoint x="-4602.5" y="-1571" />
              <mxPoint x="-4645.5" y="-1571" />
            </Array>
          </mxGeometry>
        </mxCell>
        <mxCell id="NXLZ_SZugGsvlr5fQkXZ-167" style="edgeStyle=orthogonalEdgeStyle;rounded=0;orthogonalLoop=1;jettySize=auto;html=1;entryX=0;entryY=0.5;entryDx=0;entryDy=0;endArrow=none;endFill=0;" edge="1" parent="1" source="jgS1Tv3nC2SuW6WR_Pd8-288" target="NXLZ_SZugGsvlr5fQkXZ-139">
          <mxGeometry relative="1" as="geometry">
            <Array as="points">
              <mxPoint x="-4617.5" y="-1488" />
              <mxPoint x="-4576.5" y="-1488" />
              <mxPoint x="-4576.5" y="-1660" />
              <mxPoint x="-4585.5" y="-1660" />
              <mxPoint x="-4585.5" y="-1908" />
            </Array>
          </mxGeometry>
        </mxCell>
        <mxCell id="jgS1Tv3nC2SuW6WR_Pd8-288" value="Mascota" style="whiteSpace=wrap;html=1;align=center;" vertex="1" parent="1">
          <mxGeometry x="-4675.5" y="-1438" width="100" height="40" as="geometry" />
        </mxCell>
        <mxCell id="jgS1Tv3nC2SuW6WR_Pd8-294" style="edgeStyle=orthogonalEdgeStyle;rounded=0;orthogonalLoop=1;jettySize=auto;html=1;endArrow=none;endFill=0;" edge="1" parent="1" source="jgS1Tv3nC2SuW6WR_Pd8-291" target="jgS1Tv3nC2SuW6WR_Pd8-292">
          <mxGeometry relative="1" as="geometry" />
        </mxCell>
        <mxCell id="jgS1Tv3nC2SuW6WR_Pd8-291" value="Categoria" style="whiteSpace=wrap;html=1;align=center;" vertex="1" parent="1">
          <mxGeometry x="-5208.5" y="-1723" width="100" height="44" as="geometry" />
        </mxCell>
        <mxCell id="jgS1Tv3nC2SuW6WR_Pd8-295" style="edgeStyle=orthogonalEdgeStyle;rounded=0;orthogonalLoop=1;jettySize=auto;html=1;endArrow=none;endFill=0;" edge="1" parent="1" source="jgS1Tv3nC2SuW6WR_Pd8-292" target="jgS1Tv3nC2SuW6WR_Pd8-293">
          <mxGeometry relative="1" as="geometry" />
        </mxCell>
        <mxCell id="jgS1Tv3nC2SuW6WR_Pd8-292" value="Se clasifica en" style="shape=rhombus;perimeter=rhombusPerimeter;whiteSpace=wrap;html=1;align=center;" vertex="1" parent="1">
          <mxGeometry x="-5211.5" y="-1625" width="106" height="52" as="geometry" />
        </mxCell>
        <mxCell id="jgS1Tv3nC2SuW6WR_Pd8-303" style="edgeStyle=orthogonalEdgeStyle;rounded=0;orthogonalLoop=1;jettySize=auto;html=1;entryX=0.5;entryY=0;entryDx=0;entryDy=0;endArrow=none;endFill=0;" edge="1" parent="1" source="jgS1Tv3nC2SuW6WR_Pd8-293" target="jgS1Tv3nC2SuW6WR_Pd8-302">
          <mxGeometry relative="1" as="geometry" />
        </mxCell>
        <mxCell id="JzuQI5ceS0t7QEchVxhn-5" style="edgeStyle=orthogonalEdgeStyle;rounded=0;orthogonalLoop=1;jettySize=auto;html=1;entryX=0;entryY=0.5;entryDx=0;entryDy=0;endArrow=none;endFill=0;" edge="1" parent="1" source="jgS1Tv3nC2SuW6WR_Pd8-293" target="JzuQI5ceS0t7QEchVxhn-4">
          <mxGeometry relative="1" as="geometry">
            <Array as="points">
              <mxPoint x="-5073.5" y="-1530" />
              <mxPoint x="-5073.5" y="-1566" />
            </Array>
          </mxGeometry>
        </mxCell>
        <mxCell id="JzuQI5ceS0t7QEchVxhn-24" style="edgeStyle=orthogonalEdgeStyle;rounded=0;orthogonalLoop=1;jettySize=auto;html=1;entryX=0;entryY=0.5;entryDx=0;entryDy=0;endArrow=none;endFill=0;" edge="1" parent="1" source="jgS1Tv3nC2SuW6WR_Pd8-293" target="JzuQI5ceS0t7QEchVxhn-23">
          <mxGeometry relative="1" as="geometry">
            <Array as="points">
              <mxPoint x="-5080.5" y="-1514" />
              <mxPoint x="-5080.5" y="-1484" />
            </Array>
          </mxGeometry>
        </mxCell>
        <mxCell id="jgS1Tv3nC2SuW6WR_Pd8-293" value="Producto" style="whiteSpace=wrap;html=1;align=center;" vertex="1" parent="1">
          <mxGeometry x="-5216.5" y="-1533.75" width="116" height="40" as="geometry" />
        </mxCell>
        <mxCell id="jgS1Tv3nC2SuW6WR_Pd8-296" value="n" style="text;html=1;align=center;verticalAlign=middle;resizable=0;points=[];autosize=1;strokeColor=none;fillColor=none;" vertex="1" parent="1">
          <mxGeometry x="-5163.5" y="-1578.75" width="25" height="26" as="geometry" />
        </mxCell>
        <mxCell id="jgS1Tv3nC2SuW6WR_Pd8-297" value="1" style="text;html=1;align=center;verticalAlign=middle;resizable=0;points=[];autosize=1;strokeColor=none;fillColor=none;" vertex="1" parent="1">
          <mxGeometry x="-5163.5" y="-1647" width="25" height="26" as="geometry" />
        </mxCell>
        <mxCell id="jgS1Tv3nC2SuW6WR_Pd8-298" value="&lt;b&gt;&lt;i&gt;categoriaId&lt;/i&gt;&lt;/b&gt;" style="ellipse;whiteSpace=wrap;html=1;align=center;fontStyle=4;fillColor=#ffe6cc;strokeColor=#d79b00;" vertex="1" parent="1">
          <mxGeometry x="-5233.5" y="-1687" width="67" height="24" as="geometry" />
        </mxCell>
        <mxCell id="jgS1Tv3nC2SuW6WR_Pd8-299" value="&lt;b&gt;&lt;i&gt;productoId&lt;/i&gt;&lt;/b&gt;" style="ellipse;whiteSpace=wrap;html=1;align=center;fontStyle=4;fillColor=#ffe6cc;strokeColor=#d79b00;" vertex="1" parent="1">
          <mxGeometry x="-5233.5" y="-1509" width="67" height="24" as="geometry" />
        </mxCell>
        <mxCell id="jgS1Tv3nC2SuW6WR_Pd8-304" style="edgeStyle=orthogonalEdgeStyle;rounded=0;orthogonalLoop=1;jettySize=auto;html=1;endArrow=none;endFill=0;" edge="1" parent="1" source="jgS1Tv3nC2SuW6WR_Pd8-300" target="jgS1Tv3nC2SuW6WR_Pd8-302">
          <mxGeometry relative="1" as="geometry" />
        </mxCell>
        <mxCell id="jgS1Tv3nC2SuW6WR_Pd8-300" value="Especie" style="whiteSpace=wrap;html=1;align=center;" vertex="1" parent="1">
          <mxGeometry x="-5216.5" y="-1372" width="116" height="40" as="geometry" />
        </mxCell>
        <mxCell id="jgS1Tv3nC2SuW6WR_Pd8-307" value="" style="edgeStyle=orthogonalEdgeStyle;rounded=0;orthogonalLoop=1;jettySize=auto;html=1;endArrow=none;endFill=0;" edge="1" parent="1" source="jgS1Tv3nC2SuW6WR_Pd8-302" target="jgS1Tv3nC2SuW6WR_Pd8-300">
          <mxGeometry relative="1" as="geometry" />
        </mxCell>
        <mxCell id="jgS1Tv3nC2SuW6WR_Pd8-302" value="Pertenece a" style="shape=rhombus;perimeter=rhombusPerimeter;whiteSpace=wrap;html=1;align=center;" vertex="1" parent="1">
          <mxGeometry x="-5205.5" y="-1448.75" width="94" height="51" as="geometry" />
        </mxCell>
        <mxCell id="jgS1Tv3nC2SuW6WR_Pd8-305" value="n" style="text;html=1;align=center;verticalAlign=middle;resizable=0;points=[];autosize=1;strokeColor=none;fillColor=none;" vertex="1" parent="1">
          <mxGeometry x="-5163.5" y="-1473" width="25" height="26" as="geometry" />
        </mxCell>
        <mxCell id="jgS1Tv3nC2SuW6WR_Pd8-306" value="1" style="text;html=1;align=center;verticalAlign=middle;resizable=0;points=[];autosize=1;strokeColor=none;fillColor=none;" vertex="1" parent="1">
          <mxGeometry x="-5163.5" y="-1401.75" width="25" height="26" as="geometry" />
        </mxCell>
        <mxCell id="jgS1Tv3nC2SuW6WR_Pd8-308" value="&lt;b&gt;&lt;i&gt;especieId&lt;/i&gt;&lt;/b&gt;" style="ellipse;whiteSpace=wrap;html=1;align=center;fontStyle=4;fillColor=#ffe6cc;strokeColor=#d79b00;" vertex="1" parent="1">
          <mxGeometry x="-5230.5" y="-1342" width="67" height="24" as="geometry" />
        </mxCell>
        <mxCell id="jgS1Tv3nC2SuW6WR_Pd8-312" style="edgeStyle=orthogonalEdgeStyle;rounded=0;orthogonalLoop=1;jettySize=auto;html=1;entryX=0;entryY=0.5;entryDx=0;entryDy=0;endArrow=none;endFill=0;" edge="1" parent="1" source="jgS1Tv3nC2SuW6WR_Pd8-309" target="jgS1Tv3nC2SuW6WR_Pd8-311">
          <mxGeometry relative="1" as="geometry">
            <Array as="points">
              <mxPoint x="-5046.5" y="-1634" />
            </Array>
          </mxGeometry>
        </mxCell>
        <mxCell id="jgS1Tv3nC2SuW6WR_Pd8-309" value="TipoNegocio" style="whiteSpace=wrap;html=1;align=center;" vertex="1" parent="1">
          <mxGeometry x="-5096.5" y="-1722.5" width="100" height="44" as="geometry" />
        </mxCell>
        <mxCell id="JzuQI5ceS0t7QEchVxhn-6" style="edgeStyle=orthogonalEdgeStyle;rounded=0;orthogonalLoop=1;jettySize=auto;html=1;entryX=1;entryY=0.5;entryDx=0;entryDy=0;endArrow=none;endFill=0;" edge="1" parent="1" source="jgS1Tv3nC2SuW6WR_Pd8-310" target="JzuQI5ceS0t7QEchVxhn-4">
          <mxGeometry relative="1" as="geometry">
            <Array as="points">
              <mxPoint x="-4832.5" y="-1564" />
              <mxPoint x="-4923.5" y="-1564" />
            </Array>
          </mxGeometry>
        </mxCell>
        <mxCell id="jgS1Tv3nC2SuW6WR_Pd8-310" value="Negocio" style="whiteSpace=wrap;html=1;align=center;" vertex="1" parent="1">
          <mxGeometry x="-4890.5" y="-1655" width="116" height="40" as="geometry" />
        </mxCell>
        <mxCell id="jgS1Tv3nC2SuW6WR_Pd8-313" style="edgeStyle=orthogonalEdgeStyle;rounded=0;orthogonalLoop=1;jettySize=auto;html=1;endArrow=none;endFill=0;" edge="1" parent="1" source="jgS1Tv3nC2SuW6WR_Pd8-311" target="jgS1Tv3nC2SuW6WR_Pd8-310">
          <mxGeometry relative="1" as="geometry">
            <Array as="points">
              <mxPoint x="-4869.5" y="-1634" />
              <mxPoint x="-4869.5" y="-1636" />
            </Array>
          </mxGeometry>
        </mxCell>
        <mxCell id="jgS1Tv3nC2SuW6WR_Pd8-311" value="Es de tipo" style="shape=rhombus;perimeter=rhombusPerimeter;whiteSpace=wrap;html=1;align=center;" vertex="1" parent="1">
          <mxGeometry x="-5023.5" y="-1660" width="106" height="52" as="geometry" />
        </mxCell>
        <mxCell id="jgS1Tv3nC2SuW6WR_Pd8-314" value="1" style="text;html=1;align=center;verticalAlign=middle;resizable=0;points=[];autosize=1;strokeColor=none;fillColor=none;" vertex="1" parent="1">
          <mxGeometry x="-5041.5" y="-1655" width="25" height="26" as="geometry" />
        </mxCell>
        <mxCell id="jgS1Tv3nC2SuW6WR_Pd8-315" value="n" style="text;html=1;align=center;verticalAlign=middle;resizable=0;points=[];autosize=1;strokeColor=none;fillColor=none;" vertex="1" parent="1">
          <mxGeometry x="-4923.5" y="-1655" width="25" height="26" as="geometry" />
        </mxCell>
        <mxCell id="JzuQI5ceS0t7QEchVxhn-4" value="Oferta" style="shape=associativeEntity;whiteSpace=wrap;html=1;align=center;" vertex="1" parent="1">
          <mxGeometry x="-5003.5" y="-1590.75" width="80" height="50" as="geometry" />
        </mxCell>
        <mxCell id="JzuQI5ceS0t7QEchVxhn-7" value="1" style="text;html=1;align=center;verticalAlign=middle;resizable=0;points=[];autosize=1;strokeColor=none;fillColor=none;" vertex="1" parent="1">
          <mxGeometry x="-5074.5" y="-1593.25" width="25" height="26" as="geometry" />
        </mxCell>
        <mxCell id="JzuQI5ceS0t7QEchVxhn-8" value="n" style="text;html=1;align=center;verticalAlign=middle;resizable=0;points=[];autosize=1;strokeColor=none;fillColor=none;" vertex="1" parent="1">
          <mxGeometry x="-5028.5" y="-1593.25" width="25" height="26" as="geometry" />
        </mxCell>
        <mxCell id="JzuQI5ceS0t7QEchVxhn-9" value="n" style="text;html=1;align=center;verticalAlign=middle;resizable=0;points=[];autosize=1;strokeColor=none;fillColor=none;" vertex="1" parent="1">
          <mxGeometry x="-4923.5" y="-1588" width="25" height="26" as="geometry" />
        </mxCell>
        <mxCell id="JzuQI5ceS0t7QEchVxhn-10" value="1" style="text;html=1;align=center;verticalAlign=middle;resizable=0;points=[];autosize=1;strokeColor=none;fillColor=none;" vertex="1" parent="1">
          <mxGeometry x="-4859.5" y="-1588" width="25" height="26" as="geometry" />
        </mxCell>
        <mxCell id="NXLZ_SZugGsvlr5fQkXZ-123" style="edgeStyle=orthogonalEdgeStyle;rounded=0;orthogonalLoop=1;jettySize=auto;html=1;entryX=0;entryY=0.5;entryDx=0;entryDy=0;endArrow=none;endFill=0;" edge="1" parent="1" source="JzuQI5ceS0t7QEchVxhn-11" target="JzuQI5ceS0t7QEchVxhn-13">
          <mxGeometry relative="1" as="geometry" />
        </mxCell>
        <mxCell id="JzuQI5ceS0t7QEchVxhn-11" value="Pais" style="whiteSpace=wrap;html=1;align=center;" vertex="1" parent="1">
          <mxGeometry x="-4852.5" y="-1781.5" width="116" height="40" as="geometry" />
        </mxCell>
        <mxCell id="JzuQI5ceS0t7QEchVxhn-12" value="Ciudad" style="whiteSpace=wrap;html=1;align=center;" vertex="1" parent="1">
          <mxGeometry x="-4820.5" y="-1587" width="116" height="40" as="geometry" />
        </mxCell>
        <mxCell id="NXLZ_SZugGsvlr5fQkXZ-124" style="edgeStyle=orthogonalEdgeStyle;rounded=0;orthogonalLoop=1;jettySize=auto;html=1;endArrow=none;endFill=0;" edge="1" parent="1" source="JzuQI5ceS0t7QEchVxhn-13" target="JzuQI5ceS0t7QEchVxhn-12">
          <mxGeometry relative="1" as="geometry">
            <Array as="points">
              <mxPoint x="-4749.5" y="-1628" />
              <mxPoint x="-4753.5" y="-1628" />
            </Array>
          </mxGeometry>
        </mxCell>
        <mxCell id="JzuQI5ceS0t7QEchVxhn-13" value="Se ubica en&amp;nbsp;" style="shape=rhombus;perimeter=rhombusPerimeter;whiteSpace=wrap;html=1;align=center;" vertex="1" parent="1">
          <mxGeometry x="-4828" y="-1720.5" width="106" height="52" as="geometry" />
        </mxCell>
        <mxCell id="JzuQI5ceS0t7QEchVxhn-16" value="1" style="text;html=1;align=center;verticalAlign=middle;resizable=0;points=[];autosize=1;strokeColor=none;fillColor=none;" vertex="1" parent="1">
          <mxGeometry x="-4845.5" y="-1716" width="25" height="26" as="geometry" />
        </mxCell>
        <mxCell id="JzuQI5ceS0t7QEchVxhn-17" value="n" style="text;html=1;align=center;verticalAlign=middle;resizable=0;points=[];autosize=1;strokeColor=none;fillColor=none;" vertex="1" parent="1">
          <mxGeometry x="-4750.5" y="-1681" width="25" height="26" as="geometry" />
        </mxCell>
        <mxCell id="JzuQI5ceS0t7QEchVxhn-19" style="edgeStyle=orthogonalEdgeStyle;rounded=0;orthogonalLoop=1;jettySize=auto;html=1;endArrow=none;endFill=0;" edge="1" parent="1" source="JzuQI5ceS0t7QEchVxhn-18" target="JzuQI5ceS0t7QEchVxhn-12">
          <mxGeometry relative="1" as="geometry" />
        </mxCell>
        <mxCell id="JzuQI5ceS0t7QEchVxhn-20" style="edgeStyle=orthogonalEdgeStyle;rounded=0;orthogonalLoop=1;jettySize=auto;html=1;endArrow=none;endFill=0;" edge="1" parent="1" source="JzuQI5ceS0t7QEchVxhn-18" target="jgS1Tv3nC2SuW6WR_Pd8-288">
          <mxGeometry relative="1" as="geometry">
            <Array as="points">
              <mxPoint x="-4657.5" y="-1467" />
            </Array>
          </mxGeometry>
        </mxCell>
        <mxCell id="JzuQI5ceS0t7QEchVxhn-18" value="Se localiza" style="shape=rhombus;perimeter=rhombusPerimeter;whiteSpace=wrap;html=1;align=center;" vertex="1" parent="1">
          <mxGeometry x="-4784.5" y="-1493" width="106" height="52" as="geometry" />
        </mxCell>
        <mxCell id="JzuQI5ceS0t7QEchVxhn-21" value="1" style="text;html=1;align=center;verticalAlign=middle;resizable=0;points=[];autosize=1;strokeColor=none;fillColor=none;" vertex="1" parent="1">
          <mxGeometry x="-4738.5" y="-1513.5" width="25" height="26" as="geometry" />
        </mxCell>
        <mxCell id="JzuQI5ceS0t7QEchVxhn-22" value="n" style="text;html=1;align=center;verticalAlign=middle;resizable=0;points=[];autosize=1;strokeColor=none;fillColor=none;" vertex="1" parent="1">
          <mxGeometry x="-4685.5" y="-1488.5" width="25" height="26" as="geometry" />
        </mxCell>
        <mxCell id="JzuQI5ceS0t7QEchVxhn-25" style="edgeStyle=orthogonalEdgeStyle;rounded=0;orthogonalLoop=1;jettySize=auto;html=1;entryX=0;entryY=0.5;entryDx=0;entryDy=0;endArrow=none;endFill=0;" edge="1" parent="1" source="JzuQI5ceS0t7QEchVxhn-23" target="jgS1Tv3nC2SuW6WR_Pd8-288">
          <mxGeometry relative="1" as="geometry">
            <Array as="points">
              <mxPoint x="-4799.5" y="-1484" />
              <mxPoint x="-4799.5" y="-1432" />
              <mxPoint x="-4675.5" y="-1432" />
            </Array>
          </mxGeometry>
        </mxCell>
        <mxCell id="JzuQI5ceS0t7QEchVxhn-23" value="Compra" style="shape=associativeEntity;whiteSpace=wrap;html=1;align=center;" vertex="1" parent="1">
          <mxGeometry x="-5003.5" y="-1509" width="80" height="50" as="geometry" />
        </mxCell>
        <mxCell id="JzuQI5ceS0t7QEchVxhn-26" value="1" style="text;html=1;align=center;verticalAlign=middle;resizable=0;points=[];autosize=1;strokeColor=none;fillColor=none;" vertex="1" parent="1">
          <mxGeometry x="-4864.5" y="-1513.5" width="25" height="26" as="geometry" />
        </mxCell>
        <mxCell id="JzuQI5ceS0t7QEchVxhn-27" value="n" style="text;html=1;align=center;verticalAlign=middle;resizable=0;points=[];autosize=1;strokeColor=none;fillColor=none;" vertex="1" parent="1">
          <mxGeometry x="-4917.5" y="-1513.5" width="25" height="26" as="geometry" />
        </mxCell>
        <mxCell id="JzuQI5ceS0t7QEchVxhn-28" value="n" style="text;html=1;align=center;verticalAlign=middle;resizable=0;points=[];autosize=1;strokeColor=none;fillColor=none;" vertex="1" parent="1">
          <mxGeometry x="-5033.5" y="-1511" width="25" height="26" as="geometry" />
        </mxCell>
        <mxCell id="JzuQI5ceS0t7QEchVxhn-29" value="1" style="text;html=1;align=center;verticalAlign=middle;resizable=0;points=[];autosize=1;strokeColor=none;fillColor=none;" vertex="1" parent="1">
          <mxGeometry x="-5074.5" y="-1509" width="25" height="26" as="geometry" />
        </mxCell>
        <mxCell id="JzuQI5ceS0t7QEchVxhn-30" value="&lt;b&gt;&lt;i&gt;negocioId&lt;/i&gt;&lt;/b&gt;" style="ellipse;whiteSpace=wrap;html=1;align=center;fontStyle=4;fillColor=#ffe6cc;strokeColor=#d79b00;" vertex="1" parent="1">
          <mxGeometry x="-4824.5" y="-1632" width="67" height="24" as="geometry" />
        </mxCell>
        <mxCell id="JzuQI5ceS0t7QEchVxhn-31" value="&lt;b&gt;&lt;i&gt;tipoNegocioId&lt;/i&gt;&lt;/b&gt;" style="ellipse;whiteSpace=wrap;html=1;align=center;fontStyle=4;fillColor=#ffe6cc;strokeColor=#d79b00;" vertex="1" parent="1">
          <mxGeometry x="-5060.5" y="-1694" width="89" height="24" as="geometry" />
        </mxCell>
        <mxCell id="JzuQI5ceS0t7QEchVxhn-32" value="&lt;b&gt;&lt;i&gt;&lt;font style=&quot;font-size: 10px;&quot;&gt;productoEnVentaId&lt;/font&gt;&lt;/i&gt;&lt;/b&gt;" style="ellipse;whiteSpace=wrap;html=1;align=center;fontStyle=4;fillColor=#ffe6cc;strokeColor=#d79b00;" vertex="1" parent="1">
          <mxGeometry x="-4977.5" y="-1555.75" width="104.5" height="22.75" as="geometry" />
        </mxCell>
        <mxCell id="JzuQI5ceS0t7QEchVxhn-33" value="&lt;b&gt;&lt;i&gt;&lt;font style=&quot;font-size: 10px;&quot;&gt;compraProdcutoId&lt;/font&gt;&lt;/i&gt;&lt;/b&gt;" style="ellipse;whiteSpace=wrap;html=1;align=center;fontStyle=4;fillColor=#ffe6cc;strokeColor=#d79b00;" vertex="1" parent="1">
          <mxGeometry x="-4993.5" y="-1474.75" width="92" height="26.75" as="geometry" />
        </mxCell>
        <mxCell id="JzuQI5ceS0t7QEchVxhn-35" value="&lt;b&gt;&lt;i&gt;paisId&lt;/i&gt;&lt;/b&gt;" style="ellipse;whiteSpace=wrap;html=1;align=center;fontStyle=4;fillColor=#ffe6cc;strokeColor=#d79b00;" vertex="1" parent="1">
          <mxGeometry x="-4785" y="-1754.5" width="55" height="24" as="geometry" />
        </mxCell>
        <mxCell id="JzuQI5ceS0t7QEchVxhn-36" value="&lt;b&gt;&lt;i&gt;ciudadId&lt;/i&gt;&lt;/b&gt;" style="ellipse;whiteSpace=wrap;html=1;align=center;fontStyle=4;fillColor=#ffe6cc;strokeColor=#d79b00;" vertex="1" parent="1">
          <mxGeometry x="-4820.5" y="-1560.25" width="55" height="24" as="geometry" />
        </mxCell>
        <mxCell id="JzuQI5ceS0t7QEchVxhn-47" style="edgeStyle=orthogonalEdgeStyle;rounded=0;orthogonalLoop=1;jettySize=auto;html=1;entryX=0.5;entryY=0;entryDx=0;entryDy=0;endArrow=none;endFill=0;" edge="1" parent="1" source="JzuQI5ceS0t7QEchVxhn-38" target="JzuQI5ceS0t7QEchVxhn-46">
          <mxGeometry relative="1" as="geometry" />
        </mxCell>
        <mxCell id="JzuQI5ceS0t7QEchVxhn-38" value="Propietario" style="whiteSpace=wrap;html=1;align=center;" vertex="1" parent="1">
          <mxGeometry x="-4750.5" y="-1829" width="116" height="40" as="geometry" />
        </mxCell>
        <mxCell id="JzuQI5ceS0t7QEchVxhn-40" style="edgeStyle=orthogonalEdgeStyle;rounded=0;orthogonalLoop=1;jettySize=auto;html=1;endArrow=none;endFill=0;" edge="1" parent="1" source="JzuQI5ceS0t7QEchVxhn-39" target="jgS1Tv3nC2SuW6WR_Pd8-288">
          <mxGeometry relative="1" as="geometry">
            <Array as="points">
              <mxPoint x="-4649.5" y="-1493" />
              <mxPoint x="-4649.5" y="-1493" />
            </Array>
          </mxGeometry>
        </mxCell>
        <mxCell id="JzuQI5ceS0t7QEchVxhn-41" style="edgeStyle=orthogonalEdgeStyle;rounded=0;orthogonalLoop=1;jettySize=auto;html=1;endArrow=none;endFill=0;" edge="1" parent="1" target="JzuQI5ceS0t7QEchVxhn-38">
          <mxGeometry relative="1" as="geometry">
            <mxPoint x="-4660.495517241379" y="-1549.3085556278465" as="sourcePoint" />
            <mxPoint x="-4667.530000000001" y="-1767" as="targetPoint" />
            <Array as="points">
              <mxPoint x="-4677.5" y="-1549" />
              <mxPoint x="-4677.5" y="-1657" />
              <mxPoint x="-4717.5" y="-1657" />
            </Array>
          </mxGeometry>
        </mxCell>
        <mxCell id="JzuQI5ceS0t7QEchVxhn-39" value="Posee" style="shape=rhombus;perimeter=rhombusPerimeter;whiteSpace=wrap;html=1;align=center;" vertex="1" parent="1">
          <mxGeometry x="-4713.5" y="-1553.25" width="106" height="52" as="geometry" />
        </mxCell>
        <mxCell id="JzuQI5ceS0t7QEchVxhn-42" value="n" style="text;html=1;align=center;verticalAlign=middle;resizable=0;points=[];autosize=1;strokeColor=none;fillColor=none;" vertex="1" parent="1">
          <mxGeometry x="-4646.5" y="-1511" width="25" height="26" as="geometry" />
        </mxCell>
        <mxCell id="JzuQI5ceS0t7QEchVxhn-43" value="1" style="text;html=1;align=center;verticalAlign=middle;resizable=0;points=[];autosize=1;strokeColor=none;fillColor=none;" vertex="1" parent="1">
          <mxGeometry x="-4678.5" y="-1572" width="25" height="26" as="geometry" />
        </mxCell>
        <mxCell id="JzuQI5ceS0t7QEchVxhn-48" style="edgeStyle=orthogonalEdgeStyle;rounded=0;orthogonalLoop=1;jettySize=auto;html=1;entryX=0.5;entryY=0;entryDx=0;entryDy=0;endArrow=none;endFill=0;" edge="1" parent="1" source="JzuQI5ceS0t7QEchVxhn-46" target="jgS1Tv3nC2SuW6WR_Pd8-310">
          <mxGeometry relative="1" as="geometry">
            <Array as="points">
              <mxPoint x="-4910.5" y="-1675" />
              <mxPoint x="-4832.5" y="-1675" />
            </Array>
          </mxGeometry>
        </mxCell>
        <mxCell id="JzuQI5ceS0t7QEchVxhn-46" value="Es dueño" style="shape=rhombus;perimeter=rhombusPerimeter;whiteSpace=wrap;html=1;align=center;" vertex="1" parent="1">
          <mxGeometry x="-4964" y="-1740" width="106" height="52" as="geometry" />
        </mxCell>
        <mxCell id="JzuQI5ceS0t7QEchVxhn-49" value="1" style="text;html=1;align=center;verticalAlign=middle;resizable=0;points=[];autosize=1;strokeColor=none;fillColor=none;" vertex="1" parent="1">
          <mxGeometry x="-4910.5" y="-1760" width="25" height="26" as="geometry" />
        </mxCell>
        <mxCell id="JzuQI5ceS0t7QEchVxhn-50" value="n" style="text;html=1;align=center;verticalAlign=middle;resizable=0;points=[];autosize=1;strokeColor=none;fillColor=none;" vertex="1" parent="1">
          <mxGeometry x="-4902.5" y="-1699" width="25" height="26" as="geometry" />
        </mxCell>
        <mxCell id="JzuQI5ceS0t7QEchVxhn-51" value="MultimediaGrupo" style="whiteSpace=wrap;html=1;align=center;" vertex="1" parent="1">
          <mxGeometry x="-5275" y="-1039.75" width="116" height="40" as="geometry" />
        </mxCell>
        <mxCell id="JzuQI5ceS0t7QEchVxhn-92" style="edgeStyle=orthogonalEdgeStyle;rounded=0;orthogonalLoop=1;jettySize=auto;html=1;endArrow=none;endFill=0;" edge="1" parent="1" source="JzuQI5ceS0t7QEchVxhn-52" target="JzuQI5ceS0t7QEchVxhn-67">
          <mxGeometry relative="1" as="geometry">
            <Array as="points">
              <mxPoint x="-5095.5" y="-1083" />
              <mxPoint x="-5033.5" y="-1083" />
            </Array>
          </mxGeometry>
        </mxCell>
        <mxCell id="JzuQI5ceS0t7QEchVxhn-98" style="edgeStyle=orthogonalEdgeStyle;rounded=0;orthogonalLoop=1;jettySize=auto;html=1;endArrow=none;endFill=0;" edge="1" parent="1" source="JzuQI5ceS0t7QEchVxhn-52" target="JzuQI5ceS0t7QEchVxhn-69">
          <mxGeometry relative="1" as="geometry">
            <Array as="points">
              <mxPoint x="-5076.5" y="-1060" />
              <mxPoint x="-4902.5" y="-1060" />
            </Array>
          </mxGeometry>
        </mxCell>
        <mxCell id="JzuQI5ceS0t7QEchVxhn-52" value="PublicacionGrupo" style="whiteSpace=wrap;html=1;align=center;" vertex="1" parent="1">
          <mxGeometry x="-5134.5" y="-1042" width="116" height="40" as="geometry" />
        </mxCell>
        <mxCell id="JzuQI5ceS0t7QEchVxhn-56" style="edgeStyle=orthogonalEdgeStyle;rounded=0;orthogonalLoop=1;jettySize=auto;html=1;endArrow=none;endFill=0;" edge="1" parent="1" source="JzuQI5ceS0t7QEchVxhn-55" target="JzuQI5ceS0t7QEchVxhn-51">
          <mxGeometry relative="1" as="geometry">
            <Array as="points">
              <mxPoint x="-5131.5" y="-906" />
              <mxPoint x="-5203.5" y="-906" />
            </Array>
          </mxGeometry>
        </mxCell>
        <mxCell id="JzuQI5ceS0t7QEchVxhn-58" style="edgeStyle=orthogonalEdgeStyle;rounded=0;orthogonalLoop=1;jettySize=auto;html=1;endArrow=none;endFill=0;" edge="1" parent="1" source="JzuQI5ceS0t7QEchVxhn-55" target="JzuQI5ceS0t7QEchVxhn-52">
          <mxGeometry relative="1" as="geometry" />
        </mxCell>
        <mxCell id="JzuQI5ceS0t7QEchVxhn-55" value="Contiene" style="shape=rhombus;perimeter=rhombusPerimeter;whiteSpace=wrap;html=1;align=center;" vertex="1" parent="1">
          <mxGeometry x="-5179" y="-974" width="94" height="51" as="geometry" />
        </mxCell>
        <mxCell id="JzuQI5ceS0t7QEchVxhn-59" style="edgeStyle=orthogonalEdgeStyle;rounded=0;orthogonalLoop=1;jettySize=auto;html=1;exitX=0.5;exitY=1;exitDx=0;exitDy=0;" edge="1" parent="1">
          <mxGeometry relative="1" as="geometry">
            <mxPoint x="-5209" y="-983" as="sourcePoint" />
            <mxPoint x="-5209" y="-983" as="targetPoint" />
          </mxGeometry>
        </mxCell>
        <mxCell id="JzuQI5ceS0t7QEchVxhn-60" value="1" style="text;html=1;align=center;verticalAlign=middle;resizable=0;points=[];autosize=1;strokeColor=none;fillColor=none;" vertex="1" parent="1">
          <mxGeometry x="-5135.5" y="-993" width="25" height="26" as="geometry" />
        </mxCell>
        <mxCell id="JzuQI5ceS0t7QEchVxhn-61" value="n" style="text;html=1;align=center;verticalAlign=middle;resizable=0;points=[];autosize=1;strokeColor=none;fillColor=none;" vertex="1" parent="1">
          <mxGeometry x="-5135.5" y="-930" width="25" height="26" as="geometry" />
        </mxCell>
        <mxCell id="JzuQI5ceS0t7QEchVxhn-102" style="edgeStyle=orthogonalEdgeStyle;rounded=0;orthogonalLoop=1;jettySize=auto;html=1;endArrow=none;endFill=0;entryX=0.003;entryY=0.959;entryDx=0;entryDy=0;entryPerimeter=0;" edge="1" parent="1" source="JzuQI5ceS0t7QEchVxhn-62" target="jgS1Tv3nC2SuW6WR_Pd8-288">
          <mxGeometry relative="1" as="geometry">
            <mxPoint x="-4684.5" y="-1401" as="targetPoint" />
            <Array as="points">
              <mxPoint x="-5181.5" y="-1255" />
              <mxPoint x="-4906.5" y="-1255" />
              <mxPoint x="-4906.5" y="-1400" />
              <mxPoint x="-4675.5" y="-1400" />
            </Array>
          </mxGeometry>
        </mxCell>
        <mxCell id="JzuQI5ceS0t7QEchVxhn-62" value="Denuncia" style="shape=associativeEntity;whiteSpace=wrap;html=1;align=center;" vertex="1" parent="1">
          <mxGeometry x="-5221.5" y="-1176.5" width="80" height="55" as="geometry" />
        </mxCell>
        <mxCell id="JzuQI5ceS0t7QEchVxhn-104" style="edgeStyle=orthogonalEdgeStyle;rounded=0;orthogonalLoop=1;jettySize=auto;html=1;endArrow=none;endFill=0;" edge="1" parent="1" source="JzuQI5ceS0t7QEchVxhn-67">
          <mxGeometry relative="1" as="geometry">
            <mxPoint x="-4668.5" y="-1398" as="targetPoint" />
            <Array as="points">
              <mxPoint x="-5033.5" y="-1227" />
              <mxPoint x="-4890.5" y="-1227" />
              <mxPoint x="-4890.5" y="-1384" />
              <mxPoint x="-4668.5" y="-1384" />
            </Array>
          </mxGeometry>
        </mxCell>
        <mxCell id="JzuQI5ceS0t7QEchVxhn-67" value="Reacciona" style="shape=associativeEntity;whiteSpace=wrap;html=1;align=center;" vertex="1" parent="1">
          <mxGeometry x="-5073.75" y="-1179" width="80" height="55" as="geometry" />
        </mxCell>
        <mxCell id="JzuQI5ceS0t7QEchVxhn-68" value="&lt;b&gt;&lt;i&gt;&lt;font style=&quot;font-size: 10px;&quot;&gt;reaccionPublicacionGrupoId&lt;/font&gt;&lt;/i&gt;&lt;/b&gt;" style="ellipse;whiteSpace=wrap;html=1;align=center;fontStyle=4;fillColor=#ffe6cc;strokeColor=#d79b00;" vertex="1" parent="1">
          <mxGeometry x="-5100.5" y="-1133.25" width="133.5" height="21.5" as="geometry" />
        </mxCell>
        <mxCell id="JzuQI5ceS0t7QEchVxhn-105" style="edgeStyle=orthogonalEdgeStyle;rounded=0;orthogonalLoop=1;jettySize=auto;html=1;endArrow=none;endFill=0;" edge="1" parent="1" source="JzuQI5ceS0t7QEchVxhn-69">
          <mxGeometry relative="1" as="geometry">
            <mxPoint x="-4660.5" y="-1398" as="targetPoint" />
            <Array as="points">
              <mxPoint x="-4903.5" y="-1200" />
              <mxPoint x="-4845.5" y="-1200" />
              <mxPoint x="-4845.5" y="-1377" />
              <mxPoint x="-4660.5" y="-1377" />
              <mxPoint x="-4660.5" y="-1398" />
            </Array>
          </mxGeometry>
        </mxCell>
        <mxCell id="JzuQI5ceS0t7QEchVxhn-69" value="Comentario" style="shape=associativeEntity;whiteSpace=wrap;html=1;align=center;" vertex="1" parent="1">
          <mxGeometry x="-4943" y="-1186" width="80" height="55" as="geometry" />
        </mxCell>
        <mxCell id="JzuQI5ceS0t7QEchVxhn-70" value="&lt;b&gt;&lt;i&gt;&lt;font style=&quot;font-size: 10px;&quot;&gt;reaccionPublicacionGrupoId&lt;/font&gt;&lt;/i&gt;&lt;/b&gt;" style="ellipse;whiteSpace=wrap;html=1;align=center;fontStyle=4;fillColor=#ffe6cc;strokeColor=#d79b00;" vertex="1" parent="1">
          <mxGeometry x="-4964" y="-1138.03" width="145" height="24" as="geometry" />
        </mxCell>
        <mxCell id="JzuQI5ceS0t7QEchVxhn-116" style="edgeStyle=orthogonalEdgeStyle;rounded=0;orthogonalLoop=1;jettySize=auto;html=1;endArrow=none;endFill=0;" edge="1" parent="1" source="JzuQI5ceS0t7QEchVxhn-71" target="JzuQI5ceS0t7QEchVxhn-115">
          <mxGeometry relative="1" as="geometry">
            <Array as="points">
              <mxPoint x="-4725.5" y="-1040" />
              <mxPoint x="-4626.5" y="-1040" />
            </Array>
          </mxGeometry>
        </mxCell>
        <mxCell id="JzuQI5ceS0t7QEchVxhn-71" value="Grupo" style="whiteSpace=wrap;html=1;align=center;" vertex="1" parent="1">
          <mxGeometry x="-4829.5" y="-1030" width="116" height="40" as="geometry" />
        </mxCell>
        <mxCell id="JzuQI5ceS0t7QEchVxhn-77" style="edgeStyle=orthogonalEdgeStyle;rounded=0;orthogonalLoop=1;jettySize=auto;html=1;endArrow=none;endFill=0;" edge="1" parent="1" source="JzuQI5ceS0t7QEchVxhn-72" target="JzuQI5ceS0t7QEchVxhn-71">
          <mxGeometry relative="1" as="geometry">
            <Array as="points">
              <mxPoint x="-4793.5" y="-1073" />
              <mxPoint x="-4761.5" y="-1073" />
            </Array>
          </mxGeometry>
        </mxCell>
        <mxCell id="JzuQI5ceS0t7QEchVxhn-72" value="Pertenece" style="shape=associativeEntity;whiteSpace=wrap;html=1;align=center;" vertex="1" parent="1">
          <mxGeometry x="-4837.5" y="-1194.5" width="80" height="55" as="geometry" />
        </mxCell>
        <mxCell id="JzuQI5ceS0t7QEchVxhn-78" value="1" style="text;html=1;align=center;verticalAlign=middle;resizable=0;points=[];autosize=1;strokeColor=none;fillColor=none;" vertex="1" parent="1">
          <mxGeometry x="-4796.5" y="-1259" width="25" height="26" as="geometry" />
        </mxCell>
        <mxCell id="JzuQI5ceS0t7QEchVxhn-79" value="n" style="text;html=1;align=center;verticalAlign=middle;resizable=0;points=[];autosize=1;strokeColor=none;fillColor=none;" vertex="1" parent="1">
          <mxGeometry x="-4796.5" y="-1221.5" width="25" height="26" as="geometry" />
        </mxCell>
        <mxCell id="JzuQI5ceS0t7QEchVxhn-80" value="n" style="text;html=1;align=center;verticalAlign=middle;resizable=0;points=[];autosize=1;strokeColor=none;fillColor=none;" vertex="1" parent="1">
          <mxGeometry x="-4796.5" y="-1133.53" width="25" height="26" as="geometry" />
        </mxCell>
        <mxCell id="JzuQI5ceS0t7QEchVxhn-81" value="1" style="text;html=1;align=center;verticalAlign=middle;resizable=0;points=[];autosize=1;strokeColor=none;fillColor=none;" vertex="1" parent="1">
          <mxGeometry x="-4796.5" y="-1102" width="25" height="26" as="geometry" />
        </mxCell>
        <mxCell id="JzuQI5ceS0t7QEchVxhn-82" value="&lt;font style=&quot;font-size: 10px;&quot;&gt;&lt;b style=&quot;&quot;&gt;mascotaGrupoId&lt;/b&gt;&lt;/font&gt;" style="ellipse;whiteSpace=wrap;html=1;align=center;fontStyle=4;fillColor=#ffe6cc;strokeColor=#d79b00;" vertex="1" parent="1">
          <mxGeometry x="-4820.5" y="-1149" width="103" height="21.5" as="geometry" />
        </mxCell>
        <mxCell id="JzuQI5ceS0t7QEchVxhn-84" style="edgeStyle=orthogonalEdgeStyle;rounded=0;orthogonalLoop=1;jettySize=auto;html=1;entryX=1;entryY=0.5;entryDx=0;entryDy=0;endArrow=none;endFill=0;" edge="1" parent="1" source="JzuQI5ceS0t7QEchVxhn-83" target="jgS1Tv3nC2SuW6WR_Pd8-300">
          <mxGeometry relative="1" as="geometry">
            <Array as="points">
              <mxPoint x="-5086.5" y="-1412" />
              <mxPoint x="-5086.5" y="-1339" />
            </Array>
          </mxGeometry>
        </mxCell>
        <mxCell id="JzuQI5ceS0t7QEchVxhn-86" style="edgeStyle=orthogonalEdgeStyle;rounded=0;orthogonalLoop=1;jettySize=auto;html=1;endArrow=none;endFill=0;" edge="1" parent="1">
          <mxGeometry relative="1" as="geometry">
            <mxPoint x="-4964.615384615385" y="-1412" as="sourcePoint" />
            <mxPoint x="-4675.5" y="-1424" as="targetPoint" />
            <Array as="points">
              <mxPoint x="-4936.5" y="-1412" />
              <mxPoint x="-4936.5" y="-1424" />
            </Array>
          </mxGeometry>
        </mxCell>
        <mxCell id="JzuQI5ceS0t7QEchVxhn-83" value="Pertenece" style="shape=rhombus;perimeter=rhombusPerimeter;whiteSpace=wrap;html=1;align=center;" vertex="1" parent="1">
          <mxGeometry x="-5066.5" y="-1438" width="106" height="52" as="geometry" />
        </mxCell>
        <mxCell id="JzuQI5ceS0t7QEchVxhn-87" value="1" style="text;html=1;align=center;verticalAlign=middle;resizable=0;points=[];autosize=1;strokeColor=none;fillColor=none;" vertex="1" parent="1">
          <mxGeometry x="-5073.5" y="-1438" width="25" height="26" as="geometry" />
        </mxCell>
        <mxCell id="JzuQI5ceS0t7QEchVxhn-88" value="n" style="text;html=1;align=center;verticalAlign=middle;resizable=0;points=[];autosize=1;strokeColor=none;fillColor=none;" vertex="1" parent="1">
          <mxGeometry x="-4964" y="-1435" width="25" height="26" as="geometry" />
        </mxCell>
        <mxCell id="JzuQI5ceS0t7QEchVxhn-89" style="edgeStyle=orthogonalEdgeStyle;rounded=0;orthogonalLoop=1;jettySize=auto;html=1;entryX=0.151;entryY=0.031;entryDx=0;entryDy=0;entryPerimeter=0;endArrow=none;endFill=0;" edge="1" parent="1" source="JzuQI5ceS0t7QEchVxhn-62" target="JzuQI5ceS0t7QEchVxhn-52">
          <mxGeometry relative="1" as="geometry">
            <Array as="points">
              <mxPoint x="-5182.5" y="-1077" />
              <mxPoint x="-5116.5" y="-1077" />
            </Array>
          </mxGeometry>
        </mxCell>
        <mxCell id="JzuQI5ceS0t7QEchVxhn-90" value="&lt;b&gt;&lt;i&gt;&lt;font style=&quot;font-size: 10px;&quot;&gt;denunciaPublicacionGrupoId&lt;/font&gt;&lt;/i&gt;&lt;/b&gt;" style="ellipse;whiteSpace=wrap;html=1;align=center;fontStyle=4;fillColor=#ffe6cc;strokeColor=#d79b00;" vertex="1" parent="1">
          <mxGeometry x="-5260.5" y="-1129" width="145" height="24" as="geometry" />
        </mxCell>
        <mxCell id="JzuQI5ceS0t7QEchVxhn-93" value="1" style="text;html=1;align=center;verticalAlign=middle;resizable=0;points=[];autosize=1;strokeColor=none;fillColor=none;" vertex="1" parent="1">
          <mxGeometry x="-5138.5" y="-1102" width="25" height="26" as="geometry" />
        </mxCell>
        <mxCell id="JzuQI5ceS0t7QEchVxhn-94" value="n" style="text;html=1;align=center;verticalAlign=middle;resizable=0;points=[];autosize=1;strokeColor=none;fillColor=none;" vertex="1" parent="1">
          <mxGeometry x="-5176.5" y="-1102" width="25" height="26" as="geometry" />
        </mxCell>
        <mxCell id="JzuQI5ceS0t7QEchVxhn-95" value="1" style="text;html=1;align=center;verticalAlign=middle;resizable=0;points=[];autosize=1;strokeColor=none;fillColor=none;" vertex="1" parent="1">
          <mxGeometry x="-5098.75" y="-1107.5" width="25" height="26" as="geometry" />
        </mxCell>
        <mxCell id="JzuQI5ceS0t7QEchVxhn-96" value="n" style="text;html=1;align=center;verticalAlign=middle;resizable=0;points=[];autosize=1;strokeColor=none;fillColor=none;" vertex="1" parent="1">
          <mxGeometry x="-5062.5" y="-1105" width="25" height="26" as="geometry" />
        </mxCell>
        <mxCell id="JzuQI5ceS0t7QEchVxhn-99" value="1" style="text;html=1;align=center;verticalAlign=middle;resizable=0;points=[];autosize=1;strokeColor=none;fillColor=none;" vertex="1" parent="1">
          <mxGeometry x="-4971.5" y="-1084" width="25" height="26" as="geometry" />
        </mxCell>
        <mxCell id="JzuQI5ceS0t7QEchVxhn-101" value="n" style="text;html=1;align=center;verticalAlign=middle;resizable=0;points=[];autosize=1;strokeColor=none;fillColor=none;" vertex="1" parent="1">
          <mxGeometry x="-4993.75" y="-1034" width="25" height="26" as="geometry" />
        </mxCell>
        <mxCell id="JzuQI5ceS0t7QEchVxhn-106" value="n" style="text;html=1;align=center;verticalAlign=middle;resizable=0;points=[];autosize=1;strokeColor=none;fillColor=none;" vertex="1" parent="1">
          <mxGeometry x="-4910.5" y="-1226" width="25" height="26" as="geometry" />
        </mxCell>
        <mxCell id="JzuQI5ceS0t7QEchVxhn-107" value="1" style="text;html=1;align=center;verticalAlign=middle;resizable=0;points=[];autosize=1;strokeColor=none;fillColor=none;" vertex="1" parent="1">
          <mxGeometry x="-4877.5" y="-1226" width="25" height="26" as="geometry" />
        </mxCell>
        <mxCell id="JzuQI5ceS0t7QEchVxhn-108" value="n" style="text;html=1;align=center;verticalAlign=middle;resizable=0;points=[];autosize=1;strokeColor=none;fillColor=none;" vertex="1" parent="1">
          <mxGeometry x="-5058.5" y="-1200" width="25" height="26" as="geometry" />
        </mxCell>
        <mxCell id="JzuQI5ceS0t7QEchVxhn-109" value="n" style="text;html=1;align=center;verticalAlign=middle;resizable=0;points=[];autosize=1;strokeColor=none;fillColor=none;" vertex="1" parent="1">
          <mxGeometry x="-5181.5" y="-1206" width="25" height="26" as="geometry" />
        </mxCell>
        <mxCell id="JzuQI5ceS0t7QEchVxhn-110" value="1" style="text;html=1;align=center;verticalAlign=middle;resizable=0;points=[];autosize=1;strokeColor=none;fillColor=none;" vertex="1" parent="1">
          <mxGeometry x="-5181.5" y="-1242.5" width="25" height="26" as="geometry" />
        </mxCell>
        <mxCell id="JzuQI5ceS0t7QEchVxhn-111" value="1" style="text;html=1;align=center;verticalAlign=middle;resizable=0;points=[];autosize=1;strokeColor=none;fillColor=none;" vertex="1" parent="1">
          <mxGeometry x="-5066.5" y="-1235" width="25" height="26" as="geometry" />
        </mxCell>
        <mxCell id="JzuQI5ceS0t7QEchVxhn-113" value="MensajeGrupo" style="whiteSpace=wrap;html=1;align=center;" vertex="1" parent="1">
          <mxGeometry x="-4684.5" y="-1173.25" width="116" height="40" as="geometry" />
        </mxCell>
        <mxCell id="JzuQI5ceS0t7QEchVxhn-117" style="edgeStyle=orthogonalEdgeStyle;rounded=0;orthogonalLoop=1;jettySize=auto;html=1;endArrow=none;endFill=0;" edge="1" parent="1" source="JzuQI5ceS0t7QEchVxhn-115" target="JzuQI5ceS0t7QEchVxhn-113">
          <mxGeometry relative="1" as="geometry" />
        </mxCell>
        <mxCell id="JzuQI5ceS0t7QEchVxhn-115" value="Contiene" style="shape=rhombus;perimeter=rhombusPerimeter;whiteSpace=wrap;html=1;align=center;" vertex="1" parent="1">
          <mxGeometry x="-4672.5" y="-1096.5" width="94" height="51" as="geometry" />
        </mxCell>
        <mxCell id="JzuQI5ceS0t7QEchVxhn-119" style="edgeStyle=orthogonalEdgeStyle;rounded=0;orthogonalLoop=1;jettySize=auto;html=1;endArrow=none;endFill=0;" edge="1" parent="1" source="JzuQI5ceS0t7QEchVxhn-118" target="jgS1Tv3nC2SuW6WR_Pd8-288">
          <mxGeometry relative="1" as="geometry" />
        </mxCell>
        <mxCell id="JzuQI5ceS0t7QEchVxhn-122" style="edgeStyle=orthogonalEdgeStyle;rounded=0;orthogonalLoop=1;jettySize=auto;html=1;endArrow=none;endFill=0;" edge="1" parent="1" source="JzuQI5ceS0t7QEchVxhn-118" target="JzuQI5ceS0t7QEchVxhn-113">
          <mxGeometry relative="1" as="geometry" />
        </mxCell>
        <mxCell id="JzuQI5ceS0t7QEchVxhn-118" value="Intercambia" style="shape=rhombus;perimeter=rhombusPerimeter;whiteSpace=wrap;html=1;align=center;" vertex="1" parent="1">
          <mxGeometry x="-4722" y="-1278" width="94" height="51" as="geometry" />
        </mxCell>
        <mxCell id="JzuQI5ceS0t7QEchVxhn-120" value="1" style="text;html=1;align=center;verticalAlign=middle;resizable=0;points=[];autosize=1;strokeColor=none;fillColor=none;" vertex="1" parent="1">
          <mxGeometry x="-4678.5" y="-1304" width="25" height="26" as="geometry" />
        </mxCell>
        <mxCell id="JzuQI5ceS0t7QEchVxhn-121" value="n" style="text;html=1;align=center;verticalAlign=middle;resizable=0;points=[];autosize=1;strokeColor=none;fillColor=none;" vertex="1" parent="1">
          <mxGeometry x="-4678.5" y="-1233" width="25" height="26" as="geometry" />
        </mxCell>
        <mxCell id="JzuQI5ceS0t7QEchVxhn-123" value="1" style="text;html=1;align=center;verticalAlign=middle;resizable=0;points=[];autosize=1;strokeColor=none;fillColor=none;" vertex="1" parent="1">
          <mxGeometry x="-4644.5" y="-1046" width="25" height="26" as="geometry" />
        </mxCell>
        <mxCell id="JzuQI5ceS0t7QEchVxhn-124" value="n" style="text;html=1;align=center;verticalAlign=middle;resizable=0;points=[];autosize=1;strokeColor=none;fillColor=none;" vertex="1" parent="1">
          <mxGeometry x="-4628" y="-1121.53" width="25" height="26" as="geometry" />
        </mxCell>
        <mxCell id="JzuQI5ceS0t7QEchVxhn-125" value="&lt;b&gt;&lt;i&gt;grupoId&lt;/i&gt;&lt;/b&gt;" style="ellipse;whiteSpace=wrap;html=1;align=center;fontStyle=4;fillColor=#ffe6cc;strokeColor=#d79b00;" vertex="1" parent="1">
          <mxGeometry x="-4792.5" y="-1003.5" width="127" height="24" as="geometry" />
        </mxCell>
        <mxCell id="JzuQI5ceS0t7QEchVxhn-216" style="edgeStyle=orthogonalEdgeStyle;rounded=0;orthogonalLoop=1;jettySize=auto;html=1;endArrow=none;endFill=0;" edge="1" parent="1" source="JzuQI5ceS0t7QEchVxhn-218" target="JzuQI5ceS0t7QEchVxhn-221">
          <mxGeometry relative="1" as="geometry">
            <Array as="points">
              <mxPoint x="-4399.5" y="-1084" />
              <mxPoint x="-4337.5" y="-1084" />
            </Array>
          </mxGeometry>
        </mxCell>
        <mxCell id="JzuQI5ceS0t7QEchVxhn-218" value="Evento" style="whiteSpace=wrap;html=1;align=center;" vertex="1" parent="1">
          <mxGeometry x="-4438.5" y="-1049.5" width="116" height="40" as="geometry" />
        </mxCell>
        <mxCell id="JzuQI5ceS0t7QEchVxhn-219" value="&lt;b&gt;&lt;i&gt;eventoId&lt;/i&gt;&lt;/b&gt;" style="ellipse;whiteSpace=wrap;html=1;align=center;fontStyle=4;fillColor=#ffe6cc;strokeColor=#d79b00;" vertex="1" parent="1">
          <mxGeometry x="-4373.5" y="-1024.5" width="127" height="24" as="geometry" />
        </mxCell>
        <mxCell id="JzuQI5ceS0t7QEchVxhn-242" style="edgeStyle=orthogonalEdgeStyle;rounded=0;orthogonalLoop=1;jettySize=auto;html=1;entryX=0.75;entryY=1;entryDx=0;entryDy=0;endArrow=none;endFill=0;" edge="1" parent="1" source="JzuQI5ceS0t7QEchVxhn-220" target="jgS1Tv3nC2SuW6WR_Pd8-288">
          <mxGeometry relative="1" as="geometry">
            <Array as="points">
              <mxPoint x="-4517.5" y="-1211" />
              <mxPoint x="-4614.5" y="-1211" />
              <mxPoint x="-4614.5" y="-1398" />
            </Array>
          </mxGeometry>
        </mxCell>
        <mxCell id="JzuQI5ceS0t7QEchVxhn-220" value="Denuncia" style="shape=associativeEntity;whiteSpace=wrap;html=1;align=center;" vertex="1" parent="1">
          <mxGeometry x="-4525.5" y="-1184" width="80" height="55" as="geometry" />
        </mxCell>
        <mxCell id="JzuQI5ceS0t7QEchVxhn-248" style="edgeStyle=orthogonalEdgeStyle;rounded=0;orthogonalLoop=1;jettySize=auto;html=1;endArrow=none;endFill=0;" edge="1" parent="1" source="JzuQI5ceS0t7QEchVxhn-221" target="jgS1Tv3nC2SuW6WR_Pd8-288">
          <mxGeometry relative="1" as="geometry">
            <Array as="points">
              <mxPoint x="-4358.5" y="-1245" />
              <mxPoint x="-4600.5" y="-1245" />
            </Array>
          </mxGeometry>
        </mxCell>
        <mxCell id="JzuQI5ceS0t7QEchVxhn-221" value="Asiste" style="shape=associativeEntity;whiteSpace=wrap;html=1;align=center;" vertex="1" parent="1">
          <mxGeometry x="-4377.75" y="-1186.5" width="80" height="55" as="geometry" />
        </mxCell>
        <mxCell id="JzuQI5ceS0t7QEchVxhn-222" value="&lt;b&gt;&lt;i&gt;&lt;font style=&quot;font-size: 10px;&quot;&gt;asistenciaEventoId&lt;/font&gt;&lt;/i&gt;&lt;/b&gt;" style="ellipse;whiteSpace=wrap;html=1;align=center;fontStyle=4;fillColor=#ffe6cc;strokeColor=#d79b00;" vertex="1" parent="1">
          <mxGeometry x="-4404.5" y="-1140.75" width="133.5" height="21.5" as="geometry" />
        </mxCell>
        <mxCell id="JzuQI5ceS0t7QEchVxhn-232" style="edgeStyle=orthogonalEdgeStyle;rounded=0;orthogonalLoop=1;jettySize=auto;html=1;entryX=0.151;entryY=0.031;entryDx=0;entryDy=0;entryPerimeter=0;endArrow=none;endFill=0;" edge="1" parent="1" source="JzuQI5ceS0t7QEchVxhn-220" target="JzuQI5ceS0t7QEchVxhn-218">
          <mxGeometry relative="1" as="geometry">
            <Array as="points">
              <mxPoint x="-4486.5" y="-1084.5" />
              <mxPoint x="-4420.5" y="-1084.5" />
            </Array>
          </mxGeometry>
        </mxCell>
        <mxCell id="JzuQI5ceS0t7QEchVxhn-233" value="&lt;b&gt;&lt;i&gt;&lt;font style=&quot;font-size: 10px;&quot;&gt;denunciaEventoId&lt;/font&gt;&lt;/i&gt;&lt;/b&gt;" style="ellipse;whiteSpace=wrap;html=1;align=center;fontStyle=4;fillColor=#ffe6cc;strokeColor=#d79b00;" vertex="1" parent="1">
          <mxGeometry x="-4549.5" y="-1137.03" width="145" height="24" as="geometry" />
        </mxCell>
        <mxCell id="JzuQI5ceS0t7QEchVxhn-234" value="1" style="text;html=1;align=center;verticalAlign=middle;resizable=0;points=[];autosize=1;strokeColor=none;fillColor=none;" vertex="1" parent="1">
          <mxGeometry x="-4442.5" y="-1109.5" width="25" height="26" as="geometry" />
        </mxCell>
        <mxCell id="JzuQI5ceS0t7QEchVxhn-235" value="n" style="text;html=1;align=center;verticalAlign=middle;resizable=0;points=[];autosize=1;strokeColor=none;fillColor=none;" vertex="1" parent="1">
          <mxGeometry x="-4480.5" y="-1109.5" width="25" height="26" as="geometry" />
        </mxCell>
        <mxCell id="JzuQI5ceS0t7QEchVxhn-236" value="1" style="text;html=1;align=center;verticalAlign=middle;resizable=0;points=[];autosize=1;strokeColor=none;fillColor=none;" vertex="1" parent="1">
          <mxGeometry x="-4402.75" y="-1109.25" width="25" height="26" as="geometry" />
        </mxCell>
        <mxCell id="JzuQI5ceS0t7QEchVxhn-237" value="n" style="text;html=1;align=center;verticalAlign=middle;resizable=0;points=[];autosize=1;strokeColor=none;fillColor=none;" vertex="1" parent="1">
          <mxGeometry x="-4366.5" y="-1109.5" width="25" height="26" as="geometry" />
        </mxCell>
        <mxCell id="JzuQI5ceS0t7QEchVxhn-241" value="&lt;b&gt;&lt;i&gt;&lt;font style=&quot;font-size: 12px;&quot;&gt;mensajeGrupoId&lt;/font&gt;&lt;/i&gt;&lt;/b&gt;" style="ellipse;whiteSpace=wrap;html=1;align=center;fontStyle=4;fillColor=#ffe6cc;strokeColor=#d79b00;" vertex="1" parent="1">
          <mxGeometry x="-4704.5" y="-1142.53" width="145" height="24" as="geometry" />
        </mxCell>
        <mxCell id="JzuQI5ceS0t7QEchVxhn-243" value="1" style="text;html=1;align=center;verticalAlign=middle;resizable=0;points=[];autosize=1;strokeColor=none;fillColor=none;" vertex="1" parent="1">
          <mxGeometry x="-4600.5" y="-1237" width="25" height="26" as="geometry" />
        </mxCell>
        <mxCell id="JzuQI5ceS0t7QEchVxhn-244" value="n" style="text;html=1;align=center;verticalAlign=middle;resizable=0;points=[];autosize=1;strokeColor=none;fillColor=none;" vertex="1" parent="1">
          <mxGeometry x="-4553.5" y="-1239" width="25" height="26" as="geometry" />
        </mxCell>
        <mxCell id="JzuQI5ceS0t7QEchVxhn-246" value="1" style="text;html=1;align=center;verticalAlign=middle;resizable=0;points=[];autosize=1;strokeColor=none;fillColor=none;" vertex="1" parent="1">
          <mxGeometry x="-4363.5" y="-1247.5" width="25" height="26" as="geometry" />
        </mxCell>
        <mxCell id="JzuQI5ceS0t7QEchVxhn-247" value="n" style="text;html=1;align=center;verticalAlign=middle;resizable=0;points=[];autosize=1;strokeColor=none;fillColor=none;" vertex="1" parent="1">
          <mxGeometry x="-4363.5" y="-1213" width="25" height="26" as="geometry" />
        </mxCell>
        <mxCell id="JzuQI5ceS0t7QEchVxhn-249" value="&lt;b&gt;&lt;i&gt;propietarioId&lt;/i&gt;&lt;/b&gt;" style="ellipse;whiteSpace=wrap;html=1;align=center;fontStyle=4;fillColor=#ffe6cc;strokeColor=#d79b00;" vertex="1" parent="1">
          <mxGeometry x="-4713.5" y="-1805.5" width="84" height="24" as="geometry" />
        </mxCell>
        <mxCell id="NXLZ_SZugGsvlr5fQkXZ-34" style="edgeStyle=orthogonalEdgeStyle;rounded=0;orthogonalLoop=1;jettySize=auto;html=1;endArrow=none;endFill=0;" edge="1" parent="1" source="JzuQI5ceS0t7QEchVxhn-250" target="NXLZ_SZugGsvlr5fQkXZ-33">
          <mxGeometry relative="1" as="geometry" />
        </mxCell>
        <mxCell id="JzuQI5ceS0t7QEchVxhn-250" value="PublicacionMascota" style="whiteSpace=wrap;html=1;align=center;" vertex="1" parent="1">
          <mxGeometry x="-4011.5" y="-1258" width="116" height="40" as="geometry" />
        </mxCell>
        <mxCell id="NXLZ_SZugGsvlr5fQkXZ-9" style="edgeStyle=orthogonalEdgeStyle;rounded=0;orthogonalLoop=1;jettySize=auto;html=1;entryX=0;entryY=0.75;entryDx=0;entryDy=0;endArrow=none;endFill=0;" edge="1" parent="1" source="JzuQI5ceS0t7QEchVxhn-273" target="JzuQI5ceS0t7QEchVxhn-250">
          <mxGeometry relative="1" as="geometry">
            <Array as="points">
              <mxPoint x="-4029.5" y="-1201" />
              <mxPoint x="-4029.5" y="-1228" />
            </Array>
          </mxGeometry>
        </mxCell>
        <mxCell id="JzuQI5ceS0t7QEchVxhn-273" value="Comentario" style="shape=associativeEntity;whiteSpace=wrap;html=1;align=center;" vertex="1" parent="1">
          <mxGeometry x="-4165" y="-1228.25" width="80" height="55" as="geometry" />
        </mxCell>
        <mxCell id="NXLZ_SZugGsvlr5fQkXZ-10" style="edgeStyle=orthogonalEdgeStyle;rounded=0;orthogonalLoop=1;jettySize=auto;html=1;entryX=0;entryY=0.5;entryDx=0;entryDy=0;endArrow=none;endFill=0;" edge="1" parent="1" source="JzuQI5ceS0t7QEchVxhn-275" target="JzuQI5ceS0t7QEchVxhn-250">
          <mxGeometry relative="1" as="geometry">
            <Array as="points">
              <mxPoint x="-4026.5" y="-1288" />
              <mxPoint x="-4026.5" y="-1238" />
            </Array>
          </mxGeometry>
        </mxCell>
        <mxCell id="JzuQI5ceS0t7QEchVxhn-275" value="Reacciona" style="shape=associativeEntity;whiteSpace=wrap;html=1;align=center;" vertex="1" parent="1">
          <mxGeometry x="-4165" y="-1315" width="80" height="55" as="geometry" />
        </mxCell>
        <mxCell id="NXLZ_SZugGsvlr5fQkXZ-12" style="edgeStyle=orthogonalEdgeStyle;rounded=0;orthogonalLoop=1;jettySize=auto;html=1;entryX=0.25;entryY=0;entryDx=0;entryDy=0;endArrow=none;endFill=0;" edge="1" parent="1" source="JzuQI5ceS0t7QEchVxhn-276" target="JzuQI5ceS0t7QEchVxhn-250">
          <mxGeometry relative="1" as="geometry">
            <Array as="points">
              <mxPoint x="-4028.5" y="-1357" />
              <mxPoint x="-4028.5" y="-1298" />
              <mxPoint x="-3982.5" y="-1298" />
            </Array>
          </mxGeometry>
        </mxCell>
        <mxCell id="JzuQI5ceS0t7QEchVxhn-276" value="Denuncia" style="shape=associativeEntity;whiteSpace=wrap;html=1;align=center;" vertex="1" parent="1">
          <mxGeometry x="-4165" y="-1384.5" width="80" height="55" as="geometry" />
        </mxCell>
        <mxCell id="NXLZ_SZugGsvlr5fQkXZ-1" style="edgeStyle=orthogonalEdgeStyle;rounded=0;orthogonalLoop=1;jettySize=auto;html=1;endArrow=none;endFill=0;" edge="1" parent="1" source="JzuQI5ceS0t7QEchVxhn-277" target="JzuQI5ceS0t7QEchVxhn-250">
          <mxGeometry relative="1" as="geometry" />
        </mxCell>
        <mxCell id="JzuQI5ceS0t7QEchVxhn-277" value="Publica" style="shape=rhombus;perimeter=rhombusPerimeter;whiteSpace=wrap;html=1;align=center;" vertex="1" parent="1">
          <mxGeometry x="-4222.5" y="-1140.75" width="94" height="51" as="geometry" />
        </mxCell>
        <mxCell id="JzuQI5ceS0t7QEchVxhn-279" value="&lt;b&gt;&lt;i&gt;publicacionGrupoId&lt;/i&gt;&lt;/b&gt;" style="ellipse;whiteSpace=wrap;html=1;align=center;fontStyle=4;fillColor=#ffe6cc;strokeColor=#d79b00;" vertex="1" parent="1">
          <mxGeometry x="-5130.5" y="-1017" width="127" height="24" as="geometry" />
        </mxCell>
        <mxCell id="JzuQI5ceS0t7QEchVxhn-281" style="edgeStyle=orthogonalEdgeStyle;rounded=0;orthogonalLoop=1;jettySize=auto;html=1;endArrow=none;endFill=0;" edge="1" parent="1" source="JzuQI5ceS0t7QEchVxhn-280" target="JzuQI5ceS0t7QEchVxhn-52">
          <mxGeometry relative="1" as="geometry" />
        </mxCell>
        <mxCell id="JzuQI5ceS0t7QEchVxhn-282" style="edgeStyle=orthogonalEdgeStyle;rounded=0;orthogonalLoop=1;jettySize=auto;html=1;endArrow=none;endFill=0;" edge="1" parent="1" source="JzuQI5ceS0t7QEchVxhn-280" target="JzuQI5ceS0t7QEchVxhn-71">
          <mxGeometry relative="1" as="geometry" />
        </mxCell>
        <mxCell id="JzuQI5ceS0t7QEchVxhn-280" value="Pertenece" style="shape=rhombus;perimeter=rhombusPerimeter;whiteSpace=wrap;html=1;align=center;" vertex="1" parent="1">
          <mxGeometry x="-4967" y="-1035.5" width="94" height="51" as="geometry" />
        </mxCell>
        <mxCell id="JzuQI5ceS0t7QEchVxhn-283" value="1" style="text;html=1;align=center;verticalAlign=middle;resizable=0;points=[];autosize=1;strokeColor=none;fillColor=none;" vertex="1" parent="1">
          <mxGeometry x="-4877.5" y="-1035" width="25" height="26" as="geometry" />
        </mxCell>
        <mxCell id="JzuQI5ceS0t7QEchVxhn-285" value="&lt;b&gt;&lt;i&gt;mascotaId&lt;/i&gt;&lt;/b&gt;" style="ellipse;whiteSpace=wrap;html=1;align=center;fontStyle=4;fillColor=#ffe6cc;strokeColor=#d79b00;" vertex="1" parent="1">
          <mxGeometry x="-4660.5" y="-1410" width="64" height="24" as="geometry" />
        </mxCell>
        <mxCell id="NXLZ_SZugGsvlr5fQkXZ-2" value="1" style="text;html=1;align=center;verticalAlign=middle;resizable=0;points=[];autosize=1;strokeColor=none;fillColor=none;" vertex="1" parent="1">
          <mxGeometry x="-4244.5" y="-1143" width="25" height="26" as="geometry" />
        </mxCell>
        <mxCell id="NXLZ_SZugGsvlr5fQkXZ-3" value="n" style="text;html=1;align=center;verticalAlign=middle;resizable=0;points=[];autosize=1;strokeColor=none;fillColor=none;" vertex="1" parent="1">
          <mxGeometry x="-4137.5" y="-1140.75" width="25" height="26" as="geometry" />
        </mxCell>
        <mxCell id="NXLZ_SZugGsvlr5fQkXZ-4" value="&lt;b&gt;&lt;i&gt;publicacionMascotaId&lt;/i&gt;&lt;/b&gt;" style="ellipse;whiteSpace=wrap;html=1;align=center;fontStyle=4;fillColor=#ffe6cc;strokeColor=#d79b00;" vertex="1" parent="1">
          <mxGeometry x="-4011.5" y="-1228" width="127" height="24" as="geometry" />
        </mxCell>
        <mxCell id="NXLZ_SZugGsvlr5fQkXZ-14" value="1" style="text;html=1;align=center;verticalAlign=middle;resizable=0;points=[];autosize=1;strokeColor=none;fillColor=none;" vertex="1" parent="1">
          <mxGeometry x="-4244.5" y="-1226" width="25" height="26" as="geometry" />
        </mxCell>
        <mxCell id="NXLZ_SZugGsvlr5fQkXZ-15" value="1" style="text;html=1;align=center;verticalAlign=middle;resizable=0;points=[];autosize=1;strokeColor=none;fillColor=none;" vertex="1" parent="1">
          <mxGeometry x="-4244.5" y="-1315" width="25" height="26" as="geometry" />
        </mxCell>
        <mxCell id="NXLZ_SZugGsvlr5fQkXZ-16" value="1" style="text;html=1;align=center;verticalAlign=middle;resizable=0;points=[];autosize=1;strokeColor=none;fillColor=none;" vertex="1" parent="1">
          <mxGeometry x="-4247.5" y="-1384.5" width="25" height="26" as="geometry" />
        </mxCell>
        <mxCell id="NXLZ_SZugGsvlr5fQkXZ-17" value="n" style="text;html=1;align=center;verticalAlign=middle;resizable=0;points=[];autosize=1;strokeColor=none;fillColor=none;" vertex="1" parent="1">
          <mxGeometry x="-4204.5" y="-1229" width="25" height="26" as="geometry" />
        </mxCell>
        <mxCell id="NXLZ_SZugGsvlr5fQkXZ-19" value="n" style="text;html=1;align=center;verticalAlign=middle;resizable=0;points=[];autosize=1;strokeColor=none;fillColor=none;" vertex="1" parent="1">
          <mxGeometry x="-4198.75" y="-1315" width="25" height="26" as="geometry" />
        </mxCell>
        <mxCell id="NXLZ_SZugGsvlr5fQkXZ-20" value="n" style="text;html=1;align=center;verticalAlign=middle;resizable=0;points=[];autosize=1;strokeColor=none;fillColor=none;" vertex="1" parent="1">
          <mxGeometry x="-4198.75" y="-1386" width="25" height="26" as="geometry" />
        </mxCell>
        <mxCell id="NXLZ_SZugGsvlr5fQkXZ-22" value="n" style="text;html=1;align=center;verticalAlign=middle;resizable=0;points=[];autosize=1;strokeColor=none;fillColor=none;" vertex="1" parent="1">
          <mxGeometry x="-4085" y="-1379" width="25" height="26" as="geometry" />
        </mxCell>
        <mxCell id="NXLZ_SZugGsvlr5fQkXZ-23" value="n" style="text;html=1;align=center;verticalAlign=middle;resizable=0;points=[];autosize=1;strokeColor=none;fillColor=none;" vertex="1" parent="1">
          <mxGeometry x="-4085" y="-1313" width="25" height="26" as="geometry" />
        </mxCell>
        <mxCell id="NXLZ_SZugGsvlr5fQkXZ-24" value="n" style="text;html=1;align=center;verticalAlign=middle;resizable=0;points=[];autosize=1;strokeColor=none;fillColor=none;" vertex="1" parent="1">
          <mxGeometry x="-4085" y="-1227" width="25" height="26" as="geometry" />
        </mxCell>
        <mxCell id="NXLZ_SZugGsvlr5fQkXZ-25" value="1" style="text;html=1;align=center;verticalAlign=middle;resizable=0;points=[];autosize=1;strokeColor=none;fillColor=none;" vertex="1" parent="1">
          <mxGeometry x="-4060" y="-1380" width="25" height="26" as="geometry" />
        </mxCell>
        <mxCell id="NXLZ_SZugGsvlr5fQkXZ-26" value="1" style="text;html=1;align=center;verticalAlign=middle;resizable=0;points=[];autosize=1;strokeColor=none;fillColor=none;" vertex="1" parent="1">
          <mxGeometry x="-4057.5" y="-1318" width="25" height="26" as="geometry" />
        </mxCell>
        <mxCell id="NXLZ_SZugGsvlr5fQkXZ-27" value="1" style="text;html=1;align=center;verticalAlign=middle;resizable=0;points=[];autosize=1;strokeColor=none;fillColor=none;" vertex="1" parent="1">
          <mxGeometry x="-4054.5" y="-1231" width="25" height="26" as="geometry" />
        </mxCell>
        <mxCell id="NXLZ_SZugGsvlr5fQkXZ-28" value="&lt;b&gt;&lt;i&gt;&lt;font style=&quot;font-size: 10px;&quot;&gt;comentarioPublicacionMascotaId&lt;/font&gt;&lt;/i&gt;&lt;/b&gt;" style="ellipse;whiteSpace=wrap;html=1;align=center;fontStyle=4;fillColor=#ffe6cc;strokeColor=#d79b00;" vertex="1" parent="1">
          <mxGeometry x="-4204.5" y="-1183" width="161" height="24" as="geometry" />
        </mxCell>
        <mxCell id="NXLZ_SZugGsvlr5fQkXZ-29" value="&lt;b&gt;&lt;i&gt;&lt;font style=&quot;font-size: 10px;&quot;&gt;reaccionPublicacionMascotaId&lt;/font&gt;&lt;/i&gt;&lt;/b&gt;" style="ellipse;whiteSpace=wrap;html=1;align=center;fontStyle=4;fillColor=#ffe6cc;strokeColor=#d79b00;" vertex="1" parent="1">
          <mxGeometry x="-4197.5" y="-1271.5" width="145" height="24" as="geometry" />
        </mxCell>
        <mxCell id="NXLZ_SZugGsvlr5fQkXZ-30" value="&lt;b&gt;&lt;i&gt;&lt;font style=&quot;font-size: 10px;&quot;&gt;denunciaPublicacionMascotaId&lt;/font&gt;&lt;/i&gt;&lt;/b&gt;" style="ellipse;whiteSpace=wrap;html=1;align=center;fontStyle=4;fillColor=#ffe6cc;strokeColor=#d79b00;" vertex="1" parent="1">
          <mxGeometry x="-4197.5" y="-1344" width="145" height="24" as="geometry" />
        </mxCell>
        <mxCell id="NXLZ_SZugGsvlr5fQkXZ-31" value="MultimediaMascota" style="whiteSpace=wrap;html=1;align=center;" vertex="1" parent="1">
          <mxGeometry x="-3870.5" y="-1169" width="116" height="40" as="geometry" />
        </mxCell>
        <mxCell id="NXLZ_SZugGsvlr5fQkXZ-35" style="edgeStyle=orthogonalEdgeStyle;rounded=0;orthogonalLoop=1;jettySize=auto;html=1;entryX=0.5;entryY=0;entryDx=0;entryDy=0;endArrow=none;endFill=0;" edge="1" parent="1" source="NXLZ_SZugGsvlr5fQkXZ-33" target="NXLZ_SZugGsvlr5fQkXZ-31">
          <mxGeometry relative="1" as="geometry" />
        </mxCell>
        <mxCell id="NXLZ_SZugGsvlr5fQkXZ-33" value="Contiene" style="shape=rhombus;perimeter=rhombusPerimeter;whiteSpace=wrap;html=1;align=center;" vertex="1" parent="1">
          <mxGeometry x="-3859.5" y="-1264.5" width="94" height="51" as="geometry" />
        </mxCell>
        <mxCell id="NXLZ_SZugGsvlr5fQkXZ-36" value="1" style="text;html=1;align=center;verticalAlign=middle;resizable=0;points=[];autosize=1;strokeColor=none;fillColor=none;" vertex="1" parent="1">
          <mxGeometry x="-3877.5" y="-1262.5" width="25" height="26" as="geometry" />
        </mxCell>
        <mxCell id="NXLZ_SZugGsvlr5fQkXZ-37" value="n" style="text;html=1;align=center;verticalAlign=middle;resizable=0;points=[];autosize=1;strokeColor=none;fillColor=none;" vertex="1" parent="1">
          <mxGeometry x="-3809.5" y="-1212.5" width="25" height="26" as="geometry" />
        </mxCell>
        <mxCell id="NXLZ_SZugGsvlr5fQkXZ-38" style="edgeStyle=orthogonalEdgeStyle;rounded=0;orthogonalLoop=1;jettySize=auto;html=1;endArrow=none;endFill=0;" edge="1" parent="1" source="NXLZ_SZugGsvlr5fQkXZ-39" target="NXLZ_SZugGsvlr5fQkXZ-68">
          <mxGeometry relative="1" as="geometry" />
        </mxCell>
        <mxCell id="NXLZ_SZugGsvlr5fQkXZ-39" value="PublicacionPagina" style="whiteSpace=wrap;html=1;align=center;" vertex="1" parent="1">
          <mxGeometry x="-3968.5" y="-1695.5" width="116" height="40" as="geometry" />
        </mxCell>
        <mxCell id="NXLZ_SZugGsvlr5fQkXZ-40" style="edgeStyle=orthogonalEdgeStyle;rounded=0;orthogonalLoop=1;jettySize=auto;html=1;entryX=0;entryY=0.75;entryDx=0;entryDy=0;endArrow=none;endFill=0;" edge="1" parent="1" source="NXLZ_SZugGsvlr5fQkXZ-41" target="NXLZ_SZugGsvlr5fQkXZ-39">
          <mxGeometry relative="1" as="geometry">
            <Array as="points">
              <mxPoint x="-3986.5" y="-1638.5" />
              <mxPoint x="-3986.5" y="-1665.5" />
            </Array>
          </mxGeometry>
        </mxCell>
        <mxCell id="NXLZ_SZugGsvlr5fQkXZ-41" value="Comentario" style="shape=associativeEntity;whiteSpace=wrap;html=1;align=center;" vertex="1" parent="1">
          <mxGeometry x="-4122" y="-1665.75" width="80" height="55" as="geometry" />
        </mxCell>
        <mxCell id="NXLZ_SZugGsvlr5fQkXZ-42" style="edgeStyle=orthogonalEdgeStyle;rounded=0;orthogonalLoop=1;jettySize=auto;html=1;entryX=0;entryY=0.5;entryDx=0;entryDy=0;endArrow=none;endFill=0;" edge="1" parent="1" source="NXLZ_SZugGsvlr5fQkXZ-43" target="NXLZ_SZugGsvlr5fQkXZ-39">
          <mxGeometry relative="1" as="geometry">
            <Array as="points">
              <mxPoint x="-3983.5" y="-1725.5" />
              <mxPoint x="-3983.5" y="-1675.5" />
            </Array>
          </mxGeometry>
        </mxCell>
        <mxCell id="NXLZ_SZugGsvlr5fQkXZ-43" value="Reacciona" style="shape=associativeEntity;whiteSpace=wrap;html=1;align=center;" vertex="1" parent="1">
          <mxGeometry x="-4122" y="-1752.5" width="80" height="55" as="geometry" />
        </mxCell>
        <mxCell id="NXLZ_SZugGsvlr5fQkXZ-44" style="edgeStyle=orthogonalEdgeStyle;rounded=0;orthogonalLoop=1;jettySize=auto;html=1;entryX=0.25;entryY=0;entryDx=0;entryDy=0;endArrow=none;endFill=0;" edge="1" parent="1" source="NXLZ_SZugGsvlr5fQkXZ-45" target="NXLZ_SZugGsvlr5fQkXZ-39">
          <mxGeometry relative="1" as="geometry">
            <Array as="points">
              <mxPoint x="-3985.5" y="-1794.5" />
              <mxPoint x="-3985.5" y="-1735.5" />
              <mxPoint x="-3939.5" y="-1735.5" />
            </Array>
          </mxGeometry>
        </mxCell>
        <mxCell id="NXLZ_SZugGsvlr5fQkXZ-106" style="edgeStyle=orthogonalEdgeStyle;rounded=0;orthogonalLoop=1;jettySize=auto;html=1;entryX=1;entryY=0.5;entryDx=0;entryDy=0;endArrow=none;endFill=0;" edge="1" parent="1" source="NXLZ_SZugGsvlr5fQkXZ-45" target="jgS1Tv3nC2SuW6WR_Pd8-288">
          <mxGeometry relative="1" as="geometry">
            <Array as="points">
              <mxPoint x="-4357.5" y="-1794" />
              <mxPoint x="-4357.5" y="-1474" />
              <mxPoint x="-4499.5" y="-1474" />
              <mxPoint x="-4499.5" y="-1424" />
              <mxPoint x="-4575.5" y="-1424" />
            </Array>
          </mxGeometry>
        </mxCell>
        <mxCell id="NXLZ_SZugGsvlr5fQkXZ-45" value="Denuncia" style="shape=associativeEntity;whiteSpace=wrap;html=1;align=center;" vertex="1" parent="1">
          <mxGeometry x="-4122" y="-1822" width="80" height="55" as="geometry" />
        </mxCell>
        <mxCell id="NXLZ_SZugGsvlr5fQkXZ-46" style="edgeStyle=orthogonalEdgeStyle;rounded=0;orthogonalLoop=1;jettySize=auto;html=1;endArrow=none;endFill=0;" edge="1" parent="1" source="NXLZ_SZugGsvlr5fQkXZ-47" target="NXLZ_SZugGsvlr5fQkXZ-39">
          <mxGeometry relative="1" as="geometry" />
        </mxCell>
        <mxCell id="NXLZ_SZugGsvlr5fQkXZ-47" value="Publica" style="shape=rhombus;perimeter=rhombusPerimeter;whiteSpace=wrap;html=1;align=center;" vertex="1" parent="1">
          <mxGeometry x="-4154" y="-1578.25" width="94" height="51" as="geometry" />
        </mxCell>
        <mxCell id="NXLZ_SZugGsvlr5fQkXZ-48" value="1" style="text;html=1;align=center;verticalAlign=middle;resizable=0;points=[];autosize=1;strokeColor=none;fillColor=none;" vertex="1" parent="1">
          <mxGeometry x="-4110" y="-1529.25" width="25" height="26" as="geometry" />
        </mxCell>
        <mxCell id="NXLZ_SZugGsvlr5fQkXZ-49" value="n" style="text;html=1;align=center;verticalAlign=middle;resizable=0;points=[];autosize=1;strokeColor=none;fillColor=none;" vertex="1" parent="1">
          <mxGeometry x="-4061.5" y="-1573" width="25" height="26" as="geometry" />
        </mxCell>
        <mxCell id="NXLZ_SZugGsvlr5fQkXZ-50" value="&lt;b&gt;&lt;i&gt;publicacionPaginaId&lt;/i&gt;&lt;/b&gt;" style="ellipse;whiteSpace=wrap;html=1;align=center;fontStyle=4;fillColor=#ffe6cc;strokeColor=#d79b00;" vertex="1" parent="1">
          <mxGeometry x="-3968.5" y="-1665.5" width="127" height="24" as="geometry" />
        </mxCell>
        <mxCell id="NXLZ_SZugGsvlr5fQkXZ-51" value="1" style="text;html=1;align=center;verticalAlign=middle;resizable=0;points=[];autosize=1;strokeColor=none;fillColor=none;" vertex="1" parent="1">
          <mxGeometry x="-4201.5" y="-1663.5" width="25" height="26" as="geometry" />
        </mxCell>
        <mxCell id="NXLZ_SZugGsvlr5fQkXZ-52" value="1" style="text;html=1;align=center;verticalAlign=middle;resizable=0;points=[];autosize=1;strokeColor=none;fillColor=none;" vertex="1" parent="1">
          <mxGeometry x="-4201.5" y="-1752.5" width="25" height="26" as="geometry" />
        </mxCell>
        <mxCell id="NXLZ_SZugGsvlr5fQkXZ-53" value="1" style="text;html=1;align=center;verticalAlign=middle;resizable=0;points=[];autosize=1;strokeColor=none;fillColor=none;" vertex="1" parent="1">
          <mxGeometry x="-4204.5" y="-1822" width="25" height="26" as="geometry" />
        </mxCell>
        <mxCell id="NXLZ_SZugGsvlr5fQkXZ-54" value="n" style="text;html=1;align=center;verticalAlign=middle;resizable=0;points=[];autosize=1;strokeColor=none;fillColor=none;" vertex="1" parent="1">
          <mxGeometry x="-4161.5" y="-1666.5" width="25" height="26" as="geometry" />
        </mxCell>
        <mxCell id="NXLZ_SZugGsvlr5fQkXZ-55" value="n" style="text;html=1;align=center;verticalAlign=middle;resizable=0;points=[];autosize=1;strokeColor=none;fillColor=none;" vertex="1" parent="1">
          <mxGeometry x="-4155.75" y="-1752.5" width="25" height="26" as="geometry" />
        </mxCell>
        <mxCell id="NXLZ_SZugGsvlr5fQkXZ-56" value="n" style="text;html=1;align=center;verticalAlign=middle;resizable=0;points=[];autosize=1;strokeColor=none;fillColor=none;" vertex="1" parent="1">
          <mxGeometry x="-4155.75" y="-1823.5" width="25" height="26" as="geometry" />
        </mxCell>
        <mxCell id="NXLZ_SZugGsvlr5fQkXZ-57" value="n" style="text;html=1;align=center;verticalAlign=middle;resizable=0;points=[];autosize=1;strokeColor=none;fillColor=none;" vertex="1" parent="1">
          <mxGeometry x="-4042" y="-1816.5" width="25" height="26" as="geometry" />
        </mxCell>
        <mxCell id="NXLZ_SZugGsvlr5fQkXZ-58" value="n" style="text;html=1;align=center;verticalAlign=middle;resizable=0;points=[];autosize=1;strokeColor=none;fillColor=none;" vertex="1" parent="1">
          <mxGeometry x="-4042" y="-1750.5" width="25" height="26" as="geometry" />
        </mxCell>
        <mxCell id="NXLZ_SZugGsvlr5fQkXZ-59" value="n" style="text;html=1;align=center;verticalAlign=middle;resizable=0;points=[];autosize=1;strokeColor=none;fillColor=none;" vertex="1" parent="1">
          <mxGeometry x="-4042" y="-1664.5" width="25" height="26" as="geometry" />
        </mxCell>
        <mxCell id="NXLZ_SZugGsvlr5fQkXZ-60" value="1" style="text;html=1;align=center;verticalAlign=middle;resizable=0;points=[];autosize=1;strokeColor=none;fillColor=none;" vertex="1" parent="1">
          <mxGeometry x="-4017" y="-1817.5" width="25" height="26" as="geometry" />
        </mxCell>
        <mxCell id="NXLZ_SZugGsvlr5fQkXZ-61" value="1" style="text;html=1;align=center;verticalAlign=middle;resizable=0;points=[];autosize=1;strokeColor=none;fillColor=none;" vertex="1" parent="1">
          <mxGeometry x="-4014.5" y="-1755.5" width="25" height="26" as="geometry" />
        </mxCell>
        <mxCell id="NXLZ_SZugGsvlr5fQkXZ-62" value="1" style="text;html=1;align=center;verticalAlign=middle;resizable=0;points=[];autosize=1;strokeColor=none;fillColor=none;" vertex="1" parent="1">
          <mxGeometry x="-4011.5" y="-1668.5" width="25" height="26" as="geometry" />
        </mxCell>
        <mxCell id="NXLZ_SZugGsvlr5fQkXZ-63" value="&lt;b&gt;&lt;i&gt;&lt;font style=&quot;font-size: 10px;&quot;&gt;comentarioPublicacionPaginaId&lt;/font&gt;&lt;/i&gt;&lt;/b&gt;" style="ellipse;whiteSpace=wrap;html=1;align=center;fontStyle=4;fillColor=#ffe6cc;strokeColor=#d79b00;" vertex="1" parent="1">
          <mxGeometry x="-4161.5" y="-1620.5" width="161" height="24" as="geometry" />
        </mxCell>
        <mxCell id="NXLZ_SZugGsvlr5fQkXZ-64" value="&lt;b&gt;&lt;i&gt;&lt;font style=&quot;font-size: 10px;&quot;&gt;reaccion&lt;/font&gt;&lt;/i&gt;&lt;/b&gt;&lt;b style=&quot;border-color: var(--border-color);&quot;&gt;&lt;i style=&quot;border-color: var(--border-color);&quot;&gt;&lt;font style=&quot;border-color: var(--border-color); font-size: 10px;&quot;&gt;PublicacionPaginaId&lt;/font&gt;&lt;/i&gt;&lt;/b&gt;" style="ellipse;whiteSpace=wrap;html=1;align=center;fontStyle=4;fillColor=#ffe6cc;strokeColor=#d79b00;" vertex="1" parent="1">
          <mxGeometry x="-4154.5" y="-1709" width="145" height="24" as="geometry" />
        </mxCell>
        <mxCell id="NXLZ_SZugGsvlr5fQkXZ-65" value="&lt;b&gt;&lt;i&gt;&lt;font style=&quot;font-size: 10px;&quot;&gt;denuncia&lt;/font&gt;&lt;/i&gt;&lt;/b&gt;&lt;b style=&quot;border-color: var(--border-color);&quot;&gt;&lt;i style=&quot;border-color: var(--border-color);&quot;&gt;&lt;font style=&quot;border-color: var(--border-color); font-size: 10px;&quot;&gt;PublicacionPaginaId&lt;/font&gt;&lt;/i&gt;&lt;/b&gt;" style="ellipse;whiteSpace=wrap;html=1;align=center;fontStyle=4;fillColor=#ffe6cc;strokeColor=#d79b00;" vertex="1" parent="1">
          <mxGeometry x="-4154.5" y="-1781.5" width="145" height="24" as="geometry" />
        </mxCell>
        <mxCell id="NXLZ_SZugGsvlr5fQkXZ-66" value="MultimediaPagina" style="whiteSpace=wrap;html=1;align=center;" vertex="1" parent="1">
          <mxGeometry x="-3827.5" y="-1606.5" width="116" height="40" as="geometry" />
        </mxCell>
        <mxCell id="NXLZ_SZugGsvlr5fQkXZ-67" style="edgeStyle=orthogonalEdgeStyle;rounded=0;orthogonalLoop=1;jettySize=auto;html=1;entryX=0.5;entryY=0;entryDx=0;entryDy=0;endArrow=none;endFill=0;" edge="1" parent="1" source="NXLZ_SZugGsvlr5fQkXZ-68" target="NXLZ_SZugGsvlr5fQkXZ-66">
          <mxGeometry relative="1" as="geometry" />
        </mxCell>
        <mxCell id="NXLZ_SZugGsvlr5fQkXZ-68" value="Contiene" style="shape=rhombus;perimeter=rhombusPerimeter;whiteSpace=wrap;html=1;align=center;" vertex="1" parent="1">
          <mxGeometry x="-3816.5" y="-1702" width="94" height="51" as="geometry" />
        </mxCell>
        <mxCell id="NXLZ_SZugGsvlr5fQkXZ-69" value="1" style="text;html=1;align=center;verticalAlign=middle;resizable=0;points=[];autosize=1;strokeColor=none;fillColor=none;" vertex="1" parent="1">
          <mxGeometry x="-3834.5" y="-1700" width="25" height="26" as="geometry" />
        </mxCell>
        <mxCell id="NXLZ_SZugGsvlr5fQkXZ-70" value="n" style="text;html=1;align=center;verticalAlign=middle;resizable=0;points=[];autosize=1;strokeColor=none;fillColor=none;" vertex="1" parent="1">
          <mxGeometry x="-3766.5" y="-1650" width="25" height="26" as="geometry" />
        </mxCell>
        <mxCell id="NXLZ_SZugGsvlr5fQkXZ-76" style="edgeStyle=orthogonalEdgeStyle;rounded=0;orthogonalLoop=1;jettySize=auto;html=1;endArrow=none;endFill=0;" edge="1" parent="1" source="NXLZ_SZugGsvlr5fQkXZ-71" target="NXLZ_SZugGsvlr5fQkXZ-72">
          <mxGeometry relative="1" as="geometry" />
        </mxCell>
        <mxCell id="NXLZ_SZugGsvlr5fQkXZ-71" value="Crea" style="shape=rhombus;perimeter=rhombusPerimeter;whiteSpace=wrap;html=1;align=center;" vertex="1" parent="1">
          <mxGeometry x="-4288" y="-1445" width="106" height="52" as="geometry" />
        </mxCell>
        <mxCell id="NXLZ_SZugGsvlr5fQkXZ-94" style="edgeStyle=orthogonalEdgeStyle;rounded=0;orthogonalLoop=1;jettySize=auto;html=1;entryX=1;entryY=0.5;entryDx=0;entryDy=0;endArrow=none;endFill=0;" edge="1" parent="1" source="NXLZ_SZugGsvlr5fQkXZ-72" target="NXLZ_SZugGsvlr5fQkXZ-93">
          <mxGeometry relative="1" as="geometry" />
        </mxCell>
        <mxCell id="NXLZ_SZugGsvlr5fQkXZ-72" value="Pagina" style="whiteSpace=wrap;html=1;align=center;" vertex="1" parent="1">
          <mxGeometry x="-4161.5" y="-1437.75" width="100" height="40" as="geometry" />
        </mxCell>
        <mxCell id="NXLZ_SZugGsvlr5fQkXZ-77" value="1" style="text;html=1;align=center;verticalAlign=middle;resizable=0;points=[];autosize=1;strokeColor=none;fillColor=none;" vertex="1" parent="1">
          <mxGeometry x="-4309.5" y="-1437.75" width="25" height="26" as="geometry" />
        </mxCell>
        <mxCell id="NXLZ_SZugGsvlr5fQkXZ-78" value="n" style="text;html=1;align=center;verticalAlign=middle;resizable=0;points=[];autosize=1;strokeColor=none;fillColor=none;" vertex="1" parent="1">
          <mxGeometry x="-4188" y="-1441.5" width="25" height="26" as="geometry" />
        </mxCell>
        <mxCell id="NXLZ_SZugGsvlr5fQkXZ-79" style="edgeStyle=orthogonalEdgeStyle;rounded=0;orthogonalLoop=1;jettySize=auto;html=1;entryX=0.5;entryY=1;entryDx=0;entryDy=0;endArrow=none;endFill=0;" edge="1" parent="1" source="NXLZ_SZugGsvlr5fQkXZ-72" target="NXLZ_SZugGsvlr5fQkXZ-47">
          <mxGeometry relative="1" as="geometry">
            <Array as="points">
              <mxPoint x="-4106.5" y="-1482" />
            </Array>
          </mxGeometry>
        </mxCell>
        <mxCell id="NXLZ_SZugGsvlr5fQkXZ-84" style="edgeStyle=orthogonalEdgeStyle;rounded=0;orthogonalLoop=1;jettySize=auto;html=1;endArrow=none;endFill=0;" edge="1" parent="1" source="NXLZ_SZugGsvlr5fQkXZ-82" target="NXLZ_SZugGsvlr5fQkXZ-72">
          <mxGeometry relative="1" as="geometry">
            <Array as="points">
              <mxPoint x="-4317.5" y="-1390" />
              <mxPoint x="-4317.5" y="-1457" />
              <mxPoint x="-4154.5" y="-1457" />
            </Array>
          </mxGeometry>
        </mxCell>
        <mxCell id="NXLZ_SZugGsvlr5fQkXZ-82" value="Sigue" style="shape=associativeEntity;whiteSpace=wrap;html=1;align=center;" vertex="1" parent="1">
          <mxGeometry x="-4464.5" y="-1435" width="80" height="55" as="geometry" />
        </mxCell>
        <mxCell id="NXLZ_SZugGsvlr5fQkXZ-85" value="1" style="text;html=1;align=center;verticalAlign=middle;resizable=0;points=[];autosize=1;strokeColor=none;fillColor=none;" vertex="1" parent="1">
          <mxGeometry x="-4522.5" y="-1415.5" width="25" height="26" as="geometry" />
        </mxCell>
        <mxCell id="NXLZ_SZugGsvlr5fQkXZ-86" value="n" style="text;html=1;align=center;verticalAlign=middle;resizable=0;points=[];autosize=1;strokeColor=none;fillColor=none;" vertex="1" parent="1">
          <mxGeometry x="-4494.5" y="-1417.5" width="25" height="26" as="geometry" />
        </mxCell>
        <mxCell id="NXLZ_SZugGsvlr5fQkXZ-87" value="n" style="text;html=1;align=center;verticalAlign=middle;resizable=0;points=[];autosize=1;strokeColor=none;fillColor=none;" vertex="1" parent="1">
          <mxGeometry x="-4384.5" y="-1417.5" width="25" height="26" as="geometry" />
        </mxCell>
        <mxCell id="NXLZ_SZugGsvlr5fQkXZ-88" value="1" style="text;html=1;align=center;verticalAlign=middle;resizable=0;points=[];autosize=1;strokeColor=none;fillColor=none;" vertex="1" parent="1">
          <mxGeometry x="-4347.5" y="-1417.5" width="25" height="26" as="geometry" />
        </mxCell>
        <mxCell id="NXLZ_SZugGsvlr5fQkXZ-90" value="&lt;b&gt;&lt;i&gt;&lt;font style=&quot;font-size: 10px;&quot;&gt;seguidorPaginaId&lt;/font&gt;&lt;/i&gt;&lt;/b&gt;" style="ellipse;whiteSpace=wrap;html=1;align=center;fontStyle=4;fillColor=#ffe6cc;strokeColor=#d79b00;" vertex="1" parent="1">
          <mxGeometry x="-4484" y="-1389" width="108" height="20" as="geometry" />
        </mxCell>
        <mxCell id="NXLZ_SZugGsvlr5fQkXZ-91" value="MensajePagina" style="whiteSpace=wrap;html=1;align=center;" vertex="1" parent="1">
          <mxGeometry x="-4298" y="-1588" width="116" height="40" as="geometry" />
        </mxCell>
        <mxCell id="NXLZ_SZugGsvlr5fQkXZ-95" style="edgeStyle=orthogonalEdgeStyle;rounded=0;orthogonalLoop=1;jettySize=auto;html=1;endArrow=none;endFill=0;" edge="1" parent="1" source="NXLZ_SZugGsvlr5fQkXZ-93" target="NXLZ_SZugGsvlr5fQkXZ-91">
          <mxGeometry relative="1" as="geometry" />
        </mxCell>
        <mxCell id="NXLZ_SZugGsvlr5fQkXZ-93" value="Intercambia" style="shape=rhombus;perimeter=rhombusPerimeter;whiteSpace=wrap;html=1;align=center;" vertex="1" parent="1">
          <mxGeometry x="-4247.5" y="-1517.25" width="106" height="52" as="geometry" />
        </mxCell>
        <mxCell id="NXLZ_SZugGsvlr5fQkXZ-97" value="1" style="text;html=1;align=center;verticalAlign=middle;resizable=0;points=[];autosize=1;strokeColor=none;fillColor=none;" vertex="1" parent="1">
          <mxGeometry x="-4147" y="-1516" width="25" height="26" as="geometry" />
        </mxCell>
        <mxCell id="NXLZ_SZugGsvlr5fQkXZ-98" value="n" style="text;html=1;align=center;verticalAlign=middle;resizable=0;points=[];autosize=1;strokeColor=none;fillColor=none;" vertex="1" parent="1">
          <mxGeometry x="-4197.5" y="-1536.25" width="25" height="26" as="geometry" />
        </mxCell>
        <mxCell id="NXLZ_SZugGsvlr5fQkXZ-100" style="edgeStyle=orthogonalEdgeStyle;rounded=0;orthogonalLoop=1;jettySize=auto;html=1;endArrow=none;endFill=0;" edge="1" parent="1" source="NXLZ_SZugGsvlr5fQkXZ-99" target="NXLZ_SZugGsvlr5fQkXZ-91">
          <mxGeometry relative="1" as="geometry" />
        </mxCell>
        <mxCell id="NXLZ_SZugGsvlr5fQkXZ-102" style="edgeStyle=orthogonalEdgeStyle;rounded=0;orthogonalLoop=1;jettySize=auto;html=1;entryX=1;entryY=0.75;entryDx=0;entryDy=0;endArrow=none;endFill=0;" edge="1" parent="1" source="NXLZ_SZugGsvlr5fQkXZ-99" target="jgS1Tv3nC2SuW6WR_Pd8-288">
          <mxGeometry relative="1" as="geometry">
            <Array as="points">
              <mxPoint x="-4322.5" y="-1443" />
              <mxPoint x="-4479.5" y="-1443" />
              <mxPoint x="-4479.5" y="-1412" />
              <mxPoint x="-4575.5" y="-1412" />
            </Array>
          </mxGeometry>
        </mxCell>
        <mxCell id="NXLZ_SZugGsvlr5fQkXZ-99" value="Intercambia" style="shape=rhombus;perimeter=rhombusPerimeter;whiteSpace=wrap;html=1;align=center;" vertex="1" parent="1">
          <mxGeometry x="-4341.5" y="-1520" width="95" height="52" as="geometry" />
        </mxCell>
        <mxCell id="NXLZ_SZugGsvlr5fQkXZ-101" value="&lt;b&gt;&lt;i&gt;&lt;font style=&quot;font-size: 12px;&quot;&gt;mensajePaginaId&lt;/font&gt;&lt;/i&gt;&lt;/b&gt;" style="ellipse;whiteSpace=wrap;html=1;align=center;fontStyle=4;fillColor=#ffe6cc;strokeColor=#d79b00;" vertex="1" parent="1">
          <mxGeometry x="-4306.5" y="-1560.25" width="145" height="24" as="geometry" />
        </mxCell>
        <mxCell id="NXLZ_SZugGsvlr5fQkXZ-103" value="1" style="text;html=1;align=center;verticalAlign=middle;resizable=0;points=[];autosize=1;strokeColor=none;fillColor=none;" vertex="1" parent="1">
          <mxGeometry x="-4343.5" y="-1487.5" width="25" height="26" as="geometry" />
        </mxCell>
        <mxCell id="NXLZ_SZugGsvlr5fQkXZ-104" value="n" style="text;html=1;align=center;verticalAlign=middle;resizable=0;points=[];autosize=1;strokeColor=none;fillColor=none;" vertex="1" parent="1">
          <mxGeometry x="-4314.5" y="-1539.5" width="25" height="26" as="geometry" />
        </mxCell>
        <mxCell id="NXLZ_SZugGsvlr5fQkXZ-111" style="edgeStyle=orthogonalEdgeStyle;rounded=0;orthogonalLoop=1;jettySize=auto;html=1;endArrow=none;endFill=0;" edge="1" parent="1" source="NXLZ_SZugGsvlr5fQkXZ-107" target="NXLZ_SZugGsvlr5fQkXZ-109">
          <mxGeometry relative="1" as="geometry">
            <Array as="points">
              <mxPoint x="-4994.5" y="-1289" />
            </Array>
          </mxGeometry>
        </mxCell>
        <mxCell id="NXLZ_SZugGsvlr5fQkXZ-107" value="Tiene" style="shape=rhombus;perimeter=rhombusPerimeter;whiteSpace=wrap;html=1;align=center;" vertex="1" parent="1">
          <mxGeometry x="-5041.5" y="-1360.5" width="94" height="51" as="geometry" />
        </mxCell>
        <mxCell id="NXLZ_SZugGsvlr5fQkXZ-109" value="Privacidad" style="whiteSpace=wrap;html=1;align=center;" vertex="1" parent="1">
          <mxGeometry x="-5174.5" y="-1309.5" width="116" height="40" as="geometry" />
        </mxCell>
        <mxCell id="NXLZ_SZugGsvlr5fQkXZ-112" value="1" style="text;html=1;align=center;verticalAlign=middle;resizable=0;points=[];autosize=1;strokeColor=none;fillColor=none;" vertex="1" parent="1">
          <mxGeometry x="-4953.5" y="-1356" width="25" height="26" as="geometry" />
        </mxCell>
        <mxCell id="NXLZ_SZugGsvlr5fQkXZ-113" value="1" style="text;html=1;align=center;verticalAlign=middle;resizable=0;points=[];autosize=1;strokeColor=none;fillColor=none;" vertex="1" parent="1">
          <mxGeometry x="-4996.5" y="-1319" width="25" height="26" as="geometry" />
        </mxCell>
        <mxCell id="NXLZ_SZugGsvlr5fQkXZ-115" value="&lt;b&gt;&lt;i&gt;privacidadId&lt;/i&gt;&lt;/b&gt;" style="ellipse;whiteSpace=wrap;html=1;align=center;fontStyle=4;fillColor=#ffe6cc;strokeColor=#d79b00;" vertex="1" parent="1">
          <mxGeometry x="-5138.5" y="-1279" width="80" height="24" as="geometry" />
        </mxCell>
        <mxCell id="NXLZ_SZugGsvlr5fQkXZ-116" value="&lt;b&gt;&lt;i&gt;&lt;font style=&quot;font-size: 12px;&quot;&gt;paginaId&lt;/font&gt;&lt;/i&gt;&lt;/b&gt;" style="ellipse;whiteSpace=wrap;html=1;align=center;fontStyle=4;fillColor=#ffe6cc;strokeColor=#d79b00;" vertex="1" parent="1">
          <mxGeometry x="-4096.5" y="-1413" width="85" height="24" as="geometry" />
        </mxCell>
        <mxCell id="NXLZ_SZugGsvlr5fQkXZ-117" value="&lt;b&gt;&lt;i&gt;multimediaGrupoId&lt;/i&gt;&lt;/b&gt;" style="ellipse;whiteSpace=wrap;html=1;align=center;fontStyle=4;fillColor=#ffe6cc;strokeColor=#d79b00;" vertex="1" parent="1">
          <mxGeometry x="-5272.5" y="-1007" width="127" height="24" as="geometry" />
        </mxCell>
        <mxCell id="NXLZ_SZugGsvlr5fQkXZ-119" value="Recibe" style="shape=rhombus;perimeter=rhombusPerimeter;whiteSpace=wrap;html=1;align=center;" vertex="1" parent="1">
          <mxGeometry x="-4476.5" y="-1772.5" width="106" height="52" as="geometry" />
        </mxCell>
        <mxCell id="NXLZ_SZugGsvlr5fQkXZ-142" style="edgeStyle=orthogonalEdgeStyle;rounded=0;orthogonalLoop=1;jettySize=auto;html=1;endArrow=none;endFill=0;" edge="1" parent="1" source="NXLZ_SZugGsvlr5fQkXZ-154" target="NXLZ_SZugGsvlr5fQkXZ-128">
          <mxGeometry relative="1" as="geometry" />
        </mxCell>
        <mxCell id="NXLZ_SZugGsvlr5fQkXZ-121" value="Envia" style="shape=rhombus;perimeter=rhombusPerimeter;whiteSpace=wrap;html=1;align=center;" vertex="1" parent="1">
          <mxGeometry x="-4476.5" y="-1622" width="106" height="52" as="geometry" />
        </mxCell>
        <mxCell id="NXLZ_SZugGsvlr5fQkXZ-125" value="Amistad" style="whiteSpace=wrap;html=1;align=center;" vertex="1" parent="1">
          <mxGeometry x="-4444.5" y="-1878" width="100" height="40" as="geometry" />
        </mxCell>
        <mxCell id="NXLZ_SZugGsvlr5fQkXZ-126" value="Interes" style="whiteSpace=wrap;html=1;align=center;" vertex="1" parent="1">
          <mxGeometry x="-4707.5" y="-1778.5" width="100" height="40" as="geometry" />
        </mxCell>
        <mxCell id="NXLZ_SZugGsvlr5fQkXZ-145" style="edgeStyle=orthogonalEdgeStyle;rounded=0;orthogonalLoop=1;jettySize=auto;html=1;endArrow=none;endFill=0;" edge="1" parent="1" source="NXLZ_SZugGsvlr5fQkXZ-128" target="NXLZ_SZugGsvlr5fQkXZ-119">
          <mxGeometry relative="1" as="geometry" />
        </mxCell>
        <mxCell id="NXLZ_SZugGsvlr5fQkXZ-128" value="MensajeMacota" style="whiteSpace=wrap;html=1;align=center;" vertex="1" parent="1">
          <mxGeometry x="-4473.5" y="-1690" width="100" height="40" as="geometry" />
        </mxCell>
        <mxCell id="NXLZ_SZugGsvlr5fQkXZ-129" value="Sigue" style="shape=associativeEntity;whiteSpace=wrap;html=1;align=center;" vertex="1" parent="1">
          <mxGeometry x="-4443.5" y="-1536.25" width="80" height="55" as="geometry" />
        </mxCell>
        <mxCell id="NXLZ_SZugGsvlr5fQkXZ-131" style="edgeStyle=orthogonalEdgeStyle;rounded=0;orthogonalLoop=1;jettySize=auto;html=1;entryX=1;entryY=0.25;entryDx=0;entryDy=0;endArrow=none;endFill=0;" edge="1" parent="1" source="NXLZ_SZugGsvlr5fQkXZ-129" target="jgS1Tv3nC2SuW6WR_Pd8-288">
          <mxGeometry relative="1" as="geometry">
            <Array as="points">
              <mxPoint x="-4516.5" y="-1521" />
              <mxPoint x="-4516.5" y="-1432" />
              <mxPoint x="-4575.5" y="-1432" />
            </Array>
          </mxGeometry>
        </mxCell>
        <mxCell id="NXLZ_SZugGsvlr5fQkXZ-133" value="" style="edgeStyle=orthogonalEdgeStyle;rounded=0;orthogonalLoop=1;jettySize=auto;html=1;entryX=0;entryY=0.75;entryDx=0;entryDy=0;endArrow=none;endFill=0;" edge="1" parent="1" source="jgS1Tv3nC2SuW6WR_Pd8-288" target="NXLZ_SZugGsvlr5fQkXZ-129">
          <mxGeometry relative="1" as="geometry">
            <mxPoint x="-4575.5" y="-1432" as="sourcePoint" />
            <mxPoint x="-4443.5" y="-1495" as="targetPoint" />
            <Array as="points">
              <mxPoint x="-4509.5" y="-1427" />
              <mxPoint x="-4509.5" y="-1495" />
            </Array>
          </mxGeometry>
        </mxCell>
        <mxCell id="NXLZ_SZugGsvlr5fQkXZ-132" value="n" style="text;html=1;align=center;verticalAlign=middle;resizable=0;points=[];autosize=1;strokeColor=none;fillColor=none;" vertex="1" parent="1">
          <mxGeometry x="-4469.5" y="-1520" width="25" height="26" as="geometry" />
        </mxCell>
        <mxCell id="NXLZ_SZugGsvlr5fQkXZ-134" value="1" style="text;html=1;align=center;verticalAlign=middle;resizable=0;points=[];autosize=1;strokeColor=none;fillColor=none;" vertex="1" parent="1">
          <mxGeometry x="-4505.5" y="-1518.5" width="25" height="26" as="geometry" />
        </mxCell>
        <mxCell id="NXLZ_SZugGsvlr5fQkXZ-136" value="n" style="text;html=1;align=center;verticalAlign=middle;resizable=0;points=[];autosize=1;strokeColor=none;fillColor=none;" vertex="1" parent="1">
          <mxGeometry x="-4467.5" y="-1542" width="25" height="26" as="geometry" />
        </mxCell>
        <mxCell id="NXLZ_SZugGsvlr5fQkXZ-137" value="1" style="text;html=1;align=center;verticalAlign=middle;resizable=0;points=[];autosize=1;strokeColor=none;fillColor=none;" vertex="1" parent="1">
          <mxGeometry x="-4509" y="-1545.25" width="25" height="26" as="geometry" />
        </mxCell>
        <mxCell id="NXLZ_SZugGsvlr5fQkXZ-169" style="edgeStyle=orthogonalEdgeStyle;rounded=0;orthogonalLoop=1;jettySize=auto;html=1;endArrow=none;endFill=0;" edge="1" parent="1" source="NXLZ_SZugGsvlr5fQkXZ-138" target="NXLZ_SZugGsvlr5fQkXZ-125">
          <mxGeometry relative="1" as="geometry" />
        </mxCell>
        <mxCell id="NXLZ_SZugGsvlr5fQkXZ-170" style="edgeStyle=orthogonalEdgeStyle;rounded=0;orthogonalLoop=1;jettySize=auto;html=1;entryX=0.75;entryY=0;entryDx=0;entryDy=0;endArrow=none;endFill=0;" edge="1" parent="1" source="NXLZ_SZugGsvlr5fQkXZ-138" target="jgS1Tv3nC2SuW6WR_Pd8-288">
          <mxGeometry relative="1" as="geometry">
            <Array as="points">
              <mxPoint x="-4508.5" y="-1774" />
              <mxPoint x="-4542.5" y="-1774" />
              <mxPoint x="-4542.5" y="-1481" />
              <mxPoint x="-4600.5" y="-1481" />
            </Array>
          </mxGeometry>
        </mxCell>
        <mxCell id="NXLZ_SZugGsvlr5fQkXZ-138" value="Pertenece a" style="shape=rhombus;perimeter=rhombusPerimeter;whiteSpace=wrap;html=1;align=center;" vertex="1" parent="1">
          <mxGeometry x="-4565.5" y="-1830.5" width="106" height="52" as="geometry" />
        </mxCell>
        <mxCell id="NXLZ_SZugGsvlr5fQkXZ-168" style="edgeStyle=orthogonalEdgeStyle;rounded=0;orthogonalLoop=1;jettySize=auto;html=1;endArrow=none;endFill=0;" edge="1" parent="1" source="NXLZ_SZugGsvlr5fQkXZ-139" target="NXLZ_SZugGsvlr5fQkXZ-125">
          <mxGeometry relative="1" as="geometry" />
        </mxCell>
        <mxCell id="NXLZ_SZugGsvlr5fQkXZ-139" value="Pertenece a" style="shape=rhombus;perimeter=rhombusPerimeter;whiteSpace=wrap;html=1;align=center;" vertex="1" parent="1">
          <mxGeometry x="-4565.5" y="-1934" width="106" height="52" as="geometry" />
        </mxCell>
        <mxCell id="NXLZ_SZugGsvlr5fQkXZ-163" style="edgeStyle=orthogonalEdgeStyle;rounded=0;orthogonalLoop=1;jettySize=auto;html=1;endArrow=none;endFill=0;" edge="1" parent="1" source="NXLZ_SZugGsvlr5fQkXZ-140" target="NXLZ_SZugGsvlr5fQkXZ-126">
          <mxGeometry relative="1" as="geometry" />
        </mxCell>
        <mxCell id="NXLZ_SZugGsvlr5fQkXZ-140" value="Tiene" style="shape=associativeEntity;whiteSpace=wrap;html=1;align=center;" vertex="1" parent="1">
          <mxGeometry x="-4668.5" y="-1694" width="80" height="55" as="geometry" />
        </mxCell>
        <mxCell id="NXLZ_SZugGsvlr5fQkXZ-143" value="1" style="text;html=1;align=center;verticalAlign=middle;resizable=0;points=[];autosize=1;strokeColor=none;fillColor=none;" vertex="1" parent="1">
          <mxGeometry x="-4501.5" y="-1616.75" width="25" height="26" as="geometry" />
        </mxCell>
        <mxCell id="NXLZ_SZugGsvlr5fQkXZ-144" value="n" style="text;html=1;align=center;verticalAlign=middle;resizable=0;points=[];autosize=1;strokeColor=none;fillColor=none;" vertex="1" parent="1">
          <mxGeometry x="-4421.5" y="-1641" width="25" height="26" as="geometry" />
        </mxCell>
        <mxCell id="NXLZ_SZugGsvlr5fQkXZ-147" style="edgeStyle=orthogonalEdgeStyle;rounded=0;orthogonalLoop=1;jettySize=auto;html=1;entryX=0.892;entryY=0.005;entryDx=0;entryDy=0;entryPerimeter=0;endArrow=none;endFill=0;" edge="1" parent="1" source="NXLZ_SZugGsvlr5fQkXZ-119" target="jgS1Tv3nC2SuW6WR_Pd8-288">
          <mxGeometry relative="1" as="geometry">
            <Array as="points">
              <mxPoint x="-4490.5" y="-1746" />
              <mxPoint x="-4490.5" y="-1617" />
              <mxPoint x="-4529.5" y="-1617" />
              <mxPoint x="-4529.5" y="-1466" />
              <mxPoint x="-4589.5" y="-1466" />
              <mxPoint x="-4589.5" y="-1438" />
            </Array>
          </mxGeometry>
        </mxCell>
        <mxCell id="NXLZ_SZugGsvlr5fQkXZ-148" value="n" style="text;html=1;align=center;verticalAlign=middle;resizable=0;points=[];autosize=1;strokeColor=none;fillColor=none;" vertex="1" parent="1">
          <mxGeometry x="-4421.5" y="-1725.5" width="25" height="26" as="geometry" />
        </mxCell>
        <mxCell id="NXLZ_SZugGsvlr5fQkXZ-149" value="1" style="text;html=1;align=center;verticalAlign=middle;resizable=0;points=[];autosize=1;strokeColor=none;fillColor=none;" vertex="1" parent="1">
          <mxGeometry x="-4497.5" y="-1766" width="25" height="26" as="geometry" />
        </mxCell>
        <mxCell id="NXLZ_SZugGsvlr5fQkXZ-152" value="&lt;b&gt;&lt;i&gt;seguidorMascotaId&lt;/i&gt;&lt;/b&gt;" style="ellipse;whiteSpace=wrap;html=1;align=center;fontStyle=4;fillColor=#ffe6cc;strokeColor=#d79b00;" vertex="1" parent="1">
          <mxGeometry x="-4452" y="-1497" width="104.5" height="24" as="geometry" />
        </mxCell>
        <mxCell id="NXLZ_SZugGsvlr5fQkXZ-155" value="" style="edgeStyle=orthogonalEdgeStyle;rounded=0;orthogonalLoop=1;jettySize=auto;html=1;endArrow=none;endFill=0;" edge="1" parent="1" source="NXLZ_SZugGsvlr5fQkXZ-121" target="NXLZ_SZugGsvlr5fQkXZ-154">
          <mxGeometry relative="1" as="geometry">
            <mxPoint x="-4423.5" y="-1622" as="sourcePoint" />
            <mxPoint x="-4423.5" y="-1650" as="targetPoint" />
          </mxGeometry>
        </mxCell>
        <mxCell id="NXLZ_SZugGsvlr5fQkXZ-154" value="&lt;b&gt;&lt;i&gt;&lt;font style=&quot;font-size: 12px;&quot;&gt;mensajeMascotaId&lt;/font&gt;&lt;/i&gt;&lt;/b&gt;" style="ellipse;whiteSpace=wrap;html=1;align=center;fontStyle=4;fillColor=#ffe6cc;strokeColor=#d79b00;" vertex="1" parent="1">
          <mxGeometry x="-4478" y="-1662.5" width="118.5" height="24" as="geometry" />
        </mxCell>
        <mxCell id="NXLZ_SZugGsvlr5fQkXZ-158" value="&lt;span style=&quot;font-size: 10px;&quot;&gt;&lt;b&gt;&lt;i&gt;interesMacotaId&lt;/i&gt;&lt;/b&gt;&lt;/span&gt;" style="ellipse;whiteSpace=wrap;html=1;align=center;fontStyle=4;fillColor=#ffe6cc;strokeColor=#d79b00;" vertex="1" parent="1">
          <mxGeometry x="-4669" y="-1655" width="87" height="25" as="geometry" />
        </mxCell>
        <mxCell id="NXLZ_SZugGsvlr5fQkXZ-161" value="1" style="text;html=1;align=center;verticalAlign=middle;resizable=0;points=[];autosize=1;strokeColor=none;fillColor=none;" vertex="1" parent="1">
          <mxGeometry x="-4644.5" y="-1604.75" width="25" height="26" as="geometry" />
        </mxCell>
        <mxCell id="NXLZ_SZugGsvlr5fQkXZ-162" value="n" style="text;html=1;align=center;verticalAlign=middle;resizable=0;points=[];autosize=1;strokeColor=none;fillColor=none;" vertex="1" parent="1">
          <mxGeometry x="-4644.5" y="-1632.5" width="25" height="26" as="geometry" />
        </mxCell>
        <mxCell id="NXLZ_SZugGsvlr5fQkXZ-164" value="1" style="text;html=1;align=center;verticalAlign=middle;resizable=0;points=[];autosize=1;strokeColor=none;fillColor=none;" vertex="1" parent="1">
          <mxGeometry x="-4625.5" y="-1735" width="25" height="26" as="geometry" />
        </mxCell>
        <mxCell id="NXLZ_SZugGsvlr5fQkXZ-165" value="n" style="text;html=1;align=center;verticalAlign=middle;resizable=0;points=[];autosize=1;strokeColor=none;fillColor=none;" vertex="1" parent="1">
          <mxGeometry x="-4625.5" y="-1714" width="25" height="26" as="geometry" />
        </mxCell>
        <mxCell id="NXLZ_SZugGsvlr5fQkXZ-166" value="&lt;span style=&quot;font-size: 10px;&quot;&gt;&lt;b&gt;&lt;i&gt;interesId&lt;/i&gt;&lt;/b&gt;&lt;/span&gt;" style="ellipse;whiteSpace=wrap;html=1;align=center;fontStyle=4;fillColor=#ffe6cc;strokeColor=#d79b00;" vertex="1" parent="1">
          <mxGeometry x="-4707.5" y="-1750" width="87" height="25" as="geometry" />
        </mxCell>
        <mxCell id="NXLZ_SZugGsvlr5fQkXZ-171" value="1" style="text;html=1;align=center;verticalAlign=middle;resizable=0;points=[];autosize=1;strokeColor=none;fillColor=none;" vertex="1" parent="1">
          <mxGeometry x="-4528.5" y="-1776" width="25" height="26" as="geometry" />
        </mxCell>
        <mxCell id="NXLZ_SZugGsvlr5fQkXZ-172" value="1" style="text;html=1;align=center;verticalAlign=middle;resizable=0;points=[];autosize=1;strokeColor=none;fillColor=none;" vertex="1" parent="1">
          <mxGeometry x="-4590.5" y="-1939" width="25" height="26" as="geometry" />
        </mxCell>
        <mxCell id="NXLZ_SZugGsvlr5fQkXZ-173" value="n" style="text;html=1;align=center;verticalAlign=middle;resizable=0;points=[];autosize=1;strokeColor=none;fillColor=none;" vertex="1" parent="1">
          <mxGeometry x="-4452" y="-1931" width="25" height="26" as="geometry" />
        </mxCell>
        <mxCell id="NXLZ_SZugGsvlr5fQkXZ-174" value="n" style="text;html=1;align=center;verticalAlign=middle;resizable=0;points=[];autosize=1;strokeColor=none;fillColor=none;" vertex="1" parent="1">
          <mxGeometry x="-4472.5" y="-1830.5" width="25" height="26" as="geometry" />
        </mxCell>
        <mxCell id="NXLZ_SZugGsvlr5fQkXZ-175" value="&lt;b&gt;&lt;i&gt;&lt;font style=&quot;font-size: 12px;&quot;&gt;amistadId&lt;/font&gt;&lt;/i&gt;&lt;/b&gt;" style="ellipse;whiteSpace=wrap;html=1;align=center;fontStyle=4;fillColor=#ffe6cc;strokeColor=#d79b00;" vertex="1" parent="1">
          <mxGeometry x="-4445.5" y="-1850" width="118.5" height="24" as="geometry" />
        </mxCell>
        <mxCell id="NXLZ_SZugGsvlr5fQkXZ-176" value="&lt;b&gt;&lt;i&gt;multimediaMascotaId&lt;/i&gt;&lt;/b&gt;" style="ellipse;whiteSpace=wrap;html=1;align=center;fontStyle=4;fillColor=#ffe6cc;strokeColor=#d79b00;" vertex="1" parent="1">
          <mxGeometry x="-3856.5" y="-1142" width="127" height="24" as="geometry" />
        </mxCell>
        <mxCell id="NXLZ_SZugGsvlr5fQkXZ-177" value="&lt;b&gt;&lt;i&gt;multimediaPaginaId&lt;/i&gt;&lt;/b&gt;" style="ellipse;whiteSpace=wrap;html=1;align=center;fontStyle=4;fillColor=#ffe6cc;strokeColor=#d79b00;" vertex="1" parent="1">
          <mxGeometry x="-3830.5" y="-1580" width="127" height="24" as="geometry" />
        </mxCell>
      </root>
    </mxGraphModel>
  </diagram>
</mxfile>
